<?xml version="1.0" standalone="no"?>
<!DOCTYPE svg PUBLIC "-//W3C//DTD SVG 20010904//EN"
 "http://www.w3.org/TR/2001/REC-SVG-20010904/DTD/svg10.dtd">
<svg version="1.0" xmlns="http://www.w3.org/2000/svg"
 width="468pt" height="464pt" viewBox="0 0 468 464"
 preserveAspectRatio="xMidYMid meet">
<metadata>
Created by potrace 1.8, written by Peter Selinger 2001-2007
</metadata>
<g transform="translate(0,464) scale(0.136047,-0.136047)"
fill="#000000" stroke="none">
<path d="M2215 3399 c-66 -4 -105 -12 -145 -31 -30 -13 -58 -24 -61 -24 -13 2
-99 -110 -123 -159 -67 -138 -91 -301 -62 -412 8 -28 12 -54 10 -57 -2 -4 1
-2 7 2 5 5 13 42 16 83 4 41 8 69 10 63 3 -8 13 -9 31 -3 15 4 48 13 74 20 26
6 49 17 51 24 3 6 -5 29 -17 51 -17 32 -29 41 -64 49 -43 9 -43 10 -37 43 8
45 41 107 48 90 2 -7 14 8 25 33 11 26 25 49 30 53 5 3 15 -14 22 -37 22 -75
80 -132 147 -143 29 -5 159 -38 203 -51 43 -13 57 -27 64 -60 l7 -31 -63 3
-63 4 61 -10 c59 -10 62 -12 73 -48 14 -48 14 -84 1 -97 -6 -6 -13 -41 -15
-78 -10 -133 -100 -266 -181 -266 -20 0 -48 -8 -62 -18 -37 -26 -88 -42 -132
-42 -68 0 -110 45 -169 180 -11 25 -18 36 -17 25 2 -11 13 -42 24 -68 12 -27
19 -54 15 -59 -3 -6 -2 -8 4 -5 5 3 18 -8 28 -26 11 -18 17 -32 15 -32 -3 -1
2 -19 12 -40 9 -22 22 -55 28 -72 7 -18 16 -31 20 -28 4 3 13 -2 20 -11 7 -8
19 -13 27 -10 8 3 23 1 33 -4 48 -24 56 -27 68 -22 8 2 10 8 4 15 -28 37 -22
45 61 78 45 18 87 36 94 41 7 6 16 7 21 4 5 -3 16 3 25 12 24 26 45 42 55 42
6 0 12 9 15 20 8 30 30 25 24 -6 -3 -16 0 -28 9 -31 8 -3 14 -19 14 -38 0 -26
11 -46 51 -89 49 -54 51 -57 39 -87 -18 -43 -120 -132 -203 -175 -127 -66
-144 -79 -151 -118 -6 -33 -9 -36 -34 -30 -36 9 -36 8 -23 45 13 37 -1 59 -53
86 -40 21 -115 91 -142 135 -26 41 -32 106 -12 126 20 20 -4 13 -27 -8 -49
-46 -304 -158 -327 -144 -4 3 -8 1 -8 -4 0 -5 -19 -14 -42 -21 -140 -41 -261
-147 -327 -286 -58 -122 -124 -316 -147 -435 -26 -132 -68 -266 -95 -303 -34
-46 -34 -75 1 -153 10 -24 16 -58 14 -82 -1 -23 1 -124 6 -225 12 -256 25
-282 145 -293 27 -3 66 -9 85 -14 19 -5 56 -12 83 -15 46 -6 47 -7 47 -42 0
-52 -22 -163 -32 -163 -5 0 -6 -5 -3 -10 8 -12 1705 -14 1705 -2 0 5 -9 44
-20 88 -22 87 -21 104 10 104 87 0 147 105 195 344 14 68 25 126 25 128 0 3
25 8 55 12 30 3 70 14 90 23 34 16 35 18 35 77 0 54 -42 305 -54 324 -3 4 -7
26 -10 47 -3 22 -10 67 -16 100 -6 33 -13 76 -16 95 -26 162 -56 276 -93 361
-86 193 -134 239 -336 318 -114 45 -207 96 -226 124 -3 5 -8 7 -11 5 -2 -1
-21 13 -42 34 -29 28 -34 38 -23 45 25 15 47 59 58 118 6 32 17 68 25 80 31
48 53 208 56 405 1 128 -1 153 -22 215 -13 39 -24 75 -26 81 -1 7 -11 21 -23
33 -12 12 -21 26 -21 31 0 16 -91 110 -106 110 -8 0 -14 5 -14 11 0 5 -4 7
-10 4 -5 -3 -10 -2 -10 2 0 5 -10 9 -22 10 -11 1 -24 6 -27 10 -3 4 -15 10
-26 11 -11 2 -36 12 -55 22 -45 24 -66 26 -175 19z m-67 -304 c-3 -3 -9 2 -12
12 -6 14 -5 15 5 6 7 -7 10 -15 7 -18z m-165 -159 c12 -9 14 -16 8 -21 -6 -3
-11 -2 -11 3 0 12 -91 3 -107 -11 -23 -17 -14 4 10 24 26 22 74 24 100 5z
m-28 -46 c3 -5 -1 -10 -9 -10 -9 0 -16 5 -16 10 0 6 4 10 9 10 6 0 13 -4 16
-10z m592 -136 c3 -9 1 -25 -5 -35 -14 -22 -15 -29 -3 -29 5 0 12 11 15 25 10
40 42 14 41 -34 0 -47 -19 -71 -56 -71 -26 0 -29 3 -29 35 0 19 -5 35 -11 35
-7 0 -8 12 -4 33 12 53 39 74 52 41z m-332 -990 c0 -37 -2 -39 -34 -42 -33 -3
-34 -3 -27 30 6 34 32 61 51 55 5 -2 10 -21 10 -43z m-45 -74 c0 -5 -7 -10
-15 -10 -8 0 -15 5 -15 10 0 6 7 10 15 10 8 0 15 -4 15 -10z m64 1 c4 -5 -3
-7 -14 -4 -23 6 -26 13 -6 13 8 0 17 -4 20 -9z m-37 -33 c-3 -8 -6 -5 -6 6 -1
11 2 17 5 13 3 -3 4 -12 1 -19z m59 -25 c-2 -16 -5 -30 -5 -32 -1 -3 -6 0 -12
6 -8 8 -7 17 3 32 17 28 20 27 14 -6z m-138 -238 c7 -15 8 -25 2 -25 -6 0 -10
-5 -10 -11 0 -6 15 -8 43 -4 34 5 48 2 77 -17 19 -13 39 -37 45 -53 5 -17 19
-38 30 -47 20 -18 20 -18 1 -33 -12 -9 -22 -11 -26 -5 -3 5 -12 -6 -18 -25 -7
-19 -27 -46 -44 -61 -28 -23 -39 -26 -90 -22 -51 4 -58 2 -53 -12 3 -10 -2
-23 -11 -31 -14 -11 -18 -11 -30 6 -16 22 -18 35 -4 35 6 0 10 3 10 8 0 4 -20
7 -43 7 -72 0 -113 32 -127 100 -3 17 -12 30 -20 30 -21 0 -25 41 -6 48 9 4
16 1 16 -5 0 -6 10 4 23 23 12 19 38 42 57 51 41 21 110 24 129 6 10 -11 12
-9 10 7 -2 23 9 55 20 55 4 0 13 -11 19 -25z m-164 -432 c-3 -21 -8 -40 -10
-42 -6 -7 -5 46 2 63 11 27 14 18 8 -21z m-24 -9 c0 -27 -20 -33 -21 -6 0 14
-2 14 -9 -3 -8 -18 -9 -18 -10 5 l-1 25 -10 -24 c-12 -30 -22 -22 -14 11 5 20
11 24 36 20 23 -3 29 -9 29 -28z m100 13 c14 4 23 -2 29 -18 10 -24 10 -24 10
4 1 15 5 27 10 27 5 0 8 -8 6 -17 -13 -62 -17 -73 -25 -68 -6 4 -8 10 -5 15 3
4 -4 6 -15 3 -13 -3 -22 1 -26 12 -5 13 -9 14 -15 3 -11 -17 -12 22 -2 49 6
16 8 16 11 2 2 -11 10 -15 22 -12z m112 -22 c5 -6 8 -5 8 3 0 14 26 16 34 3
15 -23 -7 -39 -50 -39 -41 0 -44 1 -44 27 0 15 3 31 7 34 6 7 31 -9 45 -28z
m-472 -5 c3 -1 -6 -7 -20 -15 -24 -14 -23 -14 31 -15 31 0 71 -5 89 -11 26 -9
34 -9 41 2 7 11 9 11 9 -2 0 -25 64 -50 267 -103 45 -11 85 -24 89 -29 4 -4
26 -7 48 -7 23 0 82 -7 131 -16 50 -9 142 -18 205 -20 63 -2 148 -5 187 -7 43
-2 84 2 100 9 l28 12 -25 2 c-14 1 -31 2 -37 1 -17 -2 -16 12 1 53 19 45 79
73 183 84 88 10 178 0 202 -23 24 -23 -11 -282 -57 -420 -19 -60 -44 -122 -54
-137 -10 -14 -18 -30 -18 -36 0 -5 -7 -15 -15 -22 -16 -13 -17 -13 -86 41 -30
24 -39 26 -81 20 -26 -4 -54 -3 -63 2 -14 8 -16 6 -10 -12 6 -19 3 -21 -22
-17 -15 2 -54 7 -86 11 -32 4 -69 13 -83 20 -15 7 -40 12 -57 9 -19 -2 -38 3
-49 13 -11 10 -18 12 -18 5 0 -20 -38 -13 -54 10 -9 12 -16 18 -16 13 0 -5 -6
-3 -12 3 -10 10 -16 8 -29 -10 -15 -20 -20 -21 -43 -10 -32 15 -65 28 -88 36
-10 3 -18 13 -18 21 0 9 -4 14 -9 10 -6 -3 -13 0 -18 7 -4 7 -16 19 -26 27
-15 12 -18 12 -15 1 5 -22 -48 -22 -67 0 -9 10 -23 16 -30 14 -15 -6 -85 24
-85 35 0 4 -25 25 -55 47 -30 21 -55 45 -55 52 0 21 -18 13 -23 -10 -4 -16 -5
-14 -4 7 2 26 -1 29 -28 30 -16 0 -41 8 -55 17 -32 20 -79 30 -155 33 -33 1
-69 5 -80 9 -13 5 -11 2 5 -8 14 -8 41 -21 60 -27 19 -6 43 -19 54 -28 10 -9
20 -15 22 -13 11 7 24 0 24 -12 0 -9 7 -13 20 -11 12 2 25 -4 34 -16 10 -15
15 -17 19 -7 4 9 17 1 41 -24 24 -25 36 -32 36 -22 0 14 3 14 15 4 8 -7 15
-19 15 -27 0 -8 5 -11 10 -8 6 4 17 1 25 -5 8 -7 15 -9 15 -5 0 4 10 -4 21
-19 27 -35 16 -46 -15 -17 l-25 23 6 -23 c6 -22 5 -23 -10 -10 -15 12 -17 12
-11 -3 4 -11 1 -16 -10 -16 -9 0 -16 -5 -16 -10 0 -7 -8 -6 -22 1 -13 7 -25
12 -28 12 -11 -1 -35 11 -42 21 -5 7 -8 6 -8 -3 0 -11 -3 -11 -15 -1 -13 10
-15 9 -15 -9 0 -12 -6 -21 -15 -21 -8 0 -15 7 -15 15 0 11 -9 14 -38 12 -20
-1 -43 -7 -50 -11 -8 -5 -18 -4 -24 2 -6 6 -17 8 -26 5 -9 -4 -13 -2 -9 4 4 6
-4 9 -19 7 -19 -2 -28 3 -31 17 -6 23 -12 24 -40 4 -20 -14 -22 -14 -28 7 -6
18 -9 19 -16 5 -12 -20 -14 -57 -5 -78 12 -29 -44 -48 -145 -50 -49 -1 -106
-7 -127 -14 -53 -19 -102 9 -80 45 8 12 5 26 -11 55 -18 34 -21 57 -21 154 0
107 13 251 29 331 l7 35 55 -1 c64 -2 198 -51 258 -95 39 -27 41 -32 41 -79 0
-33 -4 -50 -12 -51 -11 0 69 -28 82 -29 3 0 6 9 7 20 1 11 -2 18 -8 15 -5 -3
-17 -1 -26 4 -10 6 -13 11 -8 11 6 0 4 4 -4 9 -20 13 -6 86 29 148 26 45 35
53 72 61 24 4 56 5 73 0 16 -4 32 -8 35 -8z m211 -63 c-10 -9 -11 -8 -5 6 3
10 9 15 12 12 3 -3 0 -11 -7 -18z m54 -7 c8 -13 -5 -13 -25 0 -13 8 -13 10 2
10 9 0 20 -4 23 -10z m317 -34 c-2 -20 -7 -34 -11 -32 -4 3 -5 21 -3 40 2 20
7 34 11 32 4 -3 5 -21 3 -40z m-212 18 c0 -7 -4 -16 -10 -19 -5 -3 -10 1 -10
11 0 13 -3 14 -13 5 -8 -6 -17 -8 -20 -4 -14 13 -6 19 23 19 17 0 30 -5 30
-12z m21 -27 c-13 -13 -15 1 -4 30 7 17 8 17 11 -1 2 -10 -1 -23 -7 -29z m166
21 c-3 -8 -6 -5 -6 6 -1 11 2 17 5 13 3 -3 4 -12 1 -19z m-76 0 c0 -10 2 -10
6 0 6 16 40 15 46 -2 3 -8 -1 -22 -9 -33 -14 -17 -16 -17 -26 -1 -10 14 -13
14 -23 2 -9 -13 -13 -13 -29 -1 -12 9 -17 20 -13 31 7 19 47 22 48 4z m-631
-455 c0 -15 -2 -16 -10 -3 -6 9 -10 10 -10 3 0 -7 -10 -17 -21 -24 -17 -9 -20
-8 -14 3 24 41 55 53 55 21z m910 -76 c0 -4 -7 -2 -15 7 -8 8 -15 21 -15 28 1
14 30 -20 30 -35z"/>
<path d="M1982 1340 c-35 -8 -82 -46 -82 -65 0 -14 76 -27 106 -19 10 3 29 21
41 40 21 33 21 34 3 44 -21 11 -22 11 -68 0z"/>
<path d="M2127 1323 c-13 -3 -16 -10 -11 -21 3 -10 9 -27 11 -38 5 -23 37 -34
99 -34 28 0 34 4 34 21 0 11 -13 34 -29 50 -29 28 -57 34 -104 22z"/>
<path d="M2056 1265 c-3 -8 -1 -15 4 -15 6 0 10 7 10 15 0 8 -2 15 -4 15 -2 0
-6 -7 -10 -15z"/>
<path d="M1890 1232 c0 -50 48 -102 94 -102 48 0 53 7 42 54 l-10 44 -53 1
c-30 0 -58 3 -63 6 -6 3 -10 2 -10 -3z"/>
<path d="M2051 1204 c0 -11 3 -14 6 -6 3 7 2 16 -1 19 -3 4 -6 -2 -5 -13z"/>
<path d="M2085 1199 c-4 -6 -5 -12 -2 -15 2 -3 7 2 10 11 7 17 1 20 -8 4z"/>
<path d="M2107 1170 l-26 -41 25 -9 c35 -14 50 -13 84 5 34 17 69 74 48 76 -7
1 -34 3 -59 5 -44 4 -46 2 -72 -36z"/>
<path d="M2030 939 c0 -5 5 -7 10 -4 6 3 10 8 10 11 0 2 -4 4 -10 4 -5 0 -10
-5 -10 -11z"/>
<path d="M2110 934 c0 -8 5 -12 10 -9 6 4 8 11 5 16 -9 14 -15 11 -15 -7z"/>
<path d="M2161 934 c0 -11 3 -14 6 -6 3 7 2 16 -1 19 -3 4 -6 -2 -5 -13z"/>
<path d="M2076 585 c-7 -18 18 -78 28 -68 4 4 4 0 0 -10 -4 -13 -1 -17 15 -18
36 -2 40 -4 53 -16 6 -7 18 -13 25 -13 21 0 15 22 -13 55 -22 25 -25 26 -20 8
5 -14 3 -21 -6 -19 -23 3 -38 17 -37 34 0 12 3 9 10 -7 5 -13 12 -21 16 -18 3
4 -3 19 -13 34 -15 23 -19 25 -22 11 -2 -10 -7 -18 -12 -18 -12 0 -20 28 -14
45 4 8 4 15 1 15 -3 0 -7 -7 -11 -15z"/>
<path d="M2025 567 c4 -19 2 -26 -5 -22 -5 3 -10 1 -10 -5 0 -7 -9 -5 -22 4
-27 19 -44 21 -26 3 19 -19 43 -26 58 -17 8 5 19 2 28 -6 8 -8 17 -12 20 -9 4
3 2 9 -4 13 -6 4 -19 21 -28 37 l-17 30 6 -28z"/>
<path d="M2253 471 c-10 -15 -8 -22 8 -37 11 -10 19 -12 19 -5 0 6 -7 14 -15
17 -12 5 -13 9 -4 20 7 8 10 16 8 19 -3 2 -10 -4 -16 -14z"/>
<path d="M2341 454 c0 -11 3 -14 6 -6 3 7 2 16 -1 19 -3 4 -6 -2 -5 -13z"/>
<path d="M2431 444 c0 -11 3 -14 6 -6 3 7 2 16 -1 19 -3 4 -6 -2 -5 -13z"/>
<path d="M2270 400 c-9 -6 -10 -10 -3 -10 6 0 15 5 18 10 8 12 4 12 -15 0z"/>
<path d="M2121 834 c0 -11 3 -14 6 -6 3 7 2 16 -1 19 -3 4 -6 -2 -5 -13z"/>
<path d="M2176 841 c-4 -7 -5 -15 -2 -18 9 -9 19 4 14 18 -4 11 -6 11 -12 0z"/>
<path d="M2138 3003 c-34 -5 -56 -29 -40 -45 8 -8 23 -8 55 1 33 10 58 10 102
2 32 -6 63 -11 69 -11 20 0 -23 33 -46 35 -13 1 -29 3 -36 4 -7 0 -11 4 -9 9
6 8 -54 11 -95 5z"/>
<path d="M2119 2931 c8 -5 11 -16 8 -25 -7 -17 -4 -18 110 -20 35 -1 63 2 63
7 0 4 -6 7 -14 7 -7 0 -19 6 -25 14 -7 8 -21 12 -31 9 -11 -3 -20 0 -20 6 0 7
-20 11 -52 11 -35 0 -48 -3 -39 -9z m76 -31 c3 -5 -1 -10 -9 -10 -8 0 -18 5
-21 10 -3 6 1 10 9 10 8 0 18 -4 21 -10z"/>
<path d="M727 2827 c-23 -18 -34 -75 -48 -248 -14 -174 -8 -222 28 -227 43 -6
55 33 64 219 5 94 11 175 15 180 3 5 3 23 -1 39 -8 37 -36 54 -58 37z"/>
<path d="M894 2814 c-24 -36 -31 -142 -11 -168 44 -59 103 88 64 163 -17 35
-33 36 -53 5z"/>
<path d="M1210 2833 c-59 -9 -110 -27 -125 -43 -18 -20 -65 -232 -65 -293 0
-60 20 -126 42 -138 28 -15 80 -3 162 38 127 63 160 99 115 124 -26 13 -76 1
-151 -37 -26 -13 -52 -24 -58 -24 -5 0 -10 20 -10 44 0 67 21 85 110 98 41 6
83 18 93 26 21 19 22 45 2 62 -15 12 -34 12 -142 -6 -39 -6 -41 -5 -36 15 8
33 42 51 96 51 61 0 87 14 87 46 0 36 -41 50 -120 37z"/>
<path d="M1950 2736 c0 -42 22 -59 57 -43 13 6 22 16 19 24 -4 9 5 13 30 13
21 0 33 -4 29 -10 -9 -14 19 -12 33 2 25 25 23 26 -88 31 -30 1 -61 6 -67 10
-10 6 -13 -1 -13 -27z"/>
<path d="M2422 2675 c-6 -13 -7 -27 -3 -30 5 -2 11 8 14 23 7 35 3 38 -11 7z"/>
<path d="M1949 2632 c-13 -6 -14 -12 -6 -32 6 -14 16 -41 22 -60 8 -26 17 -36
35 -38 l25 -3 -24 19 c-15 12 -18 19 -10 20 8 1 30 3 49 5 87 10 155 37 147
60 -2 6 -17 15 -33 19 -40 12 -186 19 -205 10z m161 -27 c0 -8 -8 -15 -19 -15
-10 0 -39 -3 -65 -6 -32 -5 -46 -3 -46 5 0 16 33 27 86 30 34 1 44 -2 44 -14z
m30 0 c10 -12 10 -15 -4 -15 -9 0 -16 7 -16 15 0 8 2 15 4 15 2 0 9 -7 16 -15z"/>
<path d="M2416 2613 c-6 -14 -5 -15 5 -6 7 7 10 15 7 18 -3 3 -9 -2 -12 -12z"/>
</g>
</svg>
