<?xml version="1.0" standalone="no"?>
<!DOCTYPE svg PUBLIC "-//W3C//DTD SVG 20010904//EN"
 "http://www.w3.org/TR/2001/REC-SVG-20010904/DTD/svg10.dtd">
<svg version="1.0" xmlns="http://www.w3.org/2000/svg"
 width="468pt" height="610pt" viewBox="0 0 468 610"
 preserveAspectRatio="xMidYMid meet">
<metadata>
Created by potrace 1.8, written by Peter Selinger 2001-2007
</metadata>
<g transform="translate(0,610) scale(0.030469,-0.030469)"
fill="#000000" stroke="none">
<path d="M7910 17895 c0 -8 5 -15 10 -15 6 0 10 7 10 15 0 8 -4 15 -10 15 -5
0 -10 -7 -10 -15z"/>
<path d="M7830 17860 c0 -23 4 -30 20 -30 23 0 27 29 8 48 -19 19 -28 14 -28
-18z"/>
<path d="M7090 17857 c0 -7 -9 -20 -20 -30 -25 -21 -26 -47 -2 -47 19 0 37 17
60 57 17 31 16 33 -13 33 -14 0 -25 -6 -25 -13z"/>
<path d="M7443 17835 c-3 -9 2 -24 11 -34 9 -10 16 -23 16 -30 0 -7 28 -42 61
-77 44 -45 72 -65 96 -70 19 -4 35 -5 37 -3 2 2 7 23 11 47 6 39 5 42 -16 42
-12 0 -27 -7 -33 -15 -7 -9 -19 -12 -34 -9 -20 6 -22 11 -17 38 11 53 16 66
26 66 5 0 9 9 9 20 0 23 -6 24 -40 6 -22 -13 -29 -12 -68 10 -51 28 -51 28
-59 9z"/>
<path d="M7208 17828 c-23 -20 -29 -45 -12 -59 13 -10 22 -9 50 6 36 19 45 49
18 59 -24 9 -39 7 -56 -6z"/>
<path d="M7335 17830 c-4 -7 -1 -18 7 -26 12 -12 20 -13 42 -3 14 7 25 17 23
23 -5 15 -64 20 -72 6z"/>
<path d="M7716 17832 c-6 -10 30 -52 45 -52 6 0 9 7 7 16 -4 21 -44 48 -52 36z"/>
<path d="M6936 17811 c-4 -7 -5 -15 -2 -18 9 -9 19 4 14 18 -4 11 -6 11 -12 0z"/>
<path d="M7982 17788 c-12 -12 -17 -38 -7 -38 8 0 45 34 45 42 0 12 -25 9 -38
-4z"/>
<path d="M8293 17730 c3 -11 1 -22 -4 -25 -4 -3 -6 -12 -3 -20 4 -8 -6 -29
-20 -46 -31 -37 -33 -49 -7 -49 29 0 51 38 51 87 0 23 5 45 10 48 17 11 11 25
-11 25 -16 0 -20 -5 -16 -20z"/>
<path d="M7899 17713 c-15 -39 -7 -58 24 -61 32 -4 37 -31 7 -39 -11 -3 -20
-11 -20 -18 0 -18 30 -75 40 -75 5 0 12 -16 16 -36 8 -43 59 -105 79 -97 20 7
46 61 52 106 5 34 3 37 -21 37 -14 0 -26 -4 -26 -10 0 -14 -22 -12 -44 5 -18
13 -18 16 -2 47 9 18 22 41 28 50 10 13 9 21 -5 36 -9 10 -17 24 -17 30 0 17
-51 52 -77 52 -16 0 -27 -8 -34 -27z"/>
<path d="M8104 17728 c-5 -7 -7 -36 -7 -65 1 -29 -3 -53 -8 -53 -17 0 -9 -57
10 -74 33 -30 71 7 56 54 -4 14 -2 20 9 20 22 0 13 100 -10 117 -22 16 -41 17
-50 1z"/>
<path d="M6990 17696 c0 -9 7 -16 16 -16 9 0 14 5 12 12 -6 18 -28 21 -28 4z"/>
<path d="M8397 17694 c-13 -13 -7 -24 14 -24 11 0 19 5 17 12 -5 14 -22 21
-31 12z"/>
<path d="M7190 17669 c-7 -11 -9 -32 -6 -45 6 -23 8 -24 34 -11 15 8 44 22 65
31 53 23 43 40 -26 44 -48 2 -58 -1 -67 -19z"/>
<path d="M7715 17635 c-14 -13 -25 -33 -25 -44 0 -11 -5 -23 -12 -27 -15 -10
19 -34 48 -34 22 0 34 17 34 51 0 10 10 29 21 40 17 17 19 23 8 30 -24 15 -49
10 -74 -16z"/>
<path d="M6883 17643 c-27 -10 -6 -113 23 -113 6 0 12 10 11 23 0 12 3 29 7
38 8 19 -23 59 -41 52z"/>
<path d="M7397 17633 c-4 -3 -7 -15 -7 -26 0 -15 -5 -18 -25 -13 -17 4 -25 2
-25 -7 0 -15 103 -71 133 -73 10 -1 23 -6 30 -13 26 -26 38 -12 35 41 -3 46
-7 54 -33 69 -34 19 -98 33 -108 22z"/>
<path d="M6624 17570 c8 -38 7 -56 -2 -70 -15 -25 -15 -30 2 -30 8 0 24 18 35
41 21 40 21 42 3 72 -10 18 -25 33 -33 35 -14 2 -14 -4 -5 -48z"/>
<path d="M8395 17599 c-4 -5 0 -18 10 -28 19 -22 11 -71 -11 -71 -8 0 -32 16
-54 37 -32 28 -44 33 -53 24 -9 -9 -9 -16 1 -32 15 -24 1 -49 -28 -49 -16 0
-50 -29 -50 -42 0 -4 13 -9 29 -13 23 -5 33 -15 41 -40 13 -39 7 -55 -19 -55
-17 0 -61 50 -61 70 0 5 -4 10 -10 10 -5 0 -10 9 -10 19 0 35 -16 31 -60 -14
-49 -50 -85 -58 -115 -25 -10 11 -27 22 -39 26 -42 14 -76 47 -76 75 0 38 -15
44 -49 20 -16 -12 -38 -21 -49 -21 -29 0 -72 -45 -72 -75 0 -21 8 -29 45 -45
47 -20 53 -28 33 -48 -17 -17 -36 -15 -68 8 -27 19 -32 19 -70 6 -48 -16 -70
-12 -70 14 0 29 -24 41 -69 35 -23 -3 -51 0 -62 6 -11 5 -33 7 -50 4 -25 -6
-29 -11 -29 -39 0 -19 8 -40 18 -49 20 -19 67 -23 77 -7 9 14 45 12 45 -3 0
-22 37 -38 65 -27 34 13 35 13 35 -6 0 -9 -9 -18 -20 -21 -11 -3 -20 -10 -20
-15 0 -5 -4 -6 -10 -3 -5 3 -31 -10 -56 -29 -26 -20 -50 -36 -55 -36 -4 0 -17
12 -28 26 -27 35 -51 26 -51 -20 0 -26 5 -36 20 -41 12 -4 20 -15 20 -27 0
-25 27 -47 56 -48 12 0 28 -7 35 -17 8 -9 26 -21 41 -27 26 -11 88 -80 88 -97
0 -15 -16 -10 -35 11 -10 11 -25 22 -34 25 -9 2 -21 15 -26 27 -11 25 -33 33
-53 20 -10 -7 -11 -14 -1 -36 10 -22 10 -28 -4 -39 -8 -6 -17 -23 -19 -37 -2
-20 -9 -26 -35 -28 -37 -4 -39 1 -18 38 17 29 19 76 5 85 -5 3 -10 14 -10 24
0 10 -11 35 -25 55 -13 20 -22 42 -19 50 3 8 -3 23 -14 34 -27 27 -39 82 -21
93 8 5 23 6 34 3 35 -11 39 -9 43 12 4 27 -59 84 -92 84 -35 0 -39 26 -11 68
25 37 33 72 15 72 -5 0 -25 -13 -43 -30 -31 -27 -36 -28 -66 -17 -24 9 -36 9
-51 -1 -13 -8 -39 -10 -77 -6 -50 5 -62 3 -86 -16 -24 -19 -28 -28 -23 -54 4
-22 0 -38 -14 -54 -18 -22 -23 -23 -65 -14 -37 8 -49 7 -60 -5 -18 -18 -19
-35 -3 -51 6 -6 10 -14 7 -16 -9 -9 -49 6 -49 19 0 17 -48 48 -65 41 -20 -7
-23 -66 -6 -98 15 -27 53 -39 65 -20 3 5 20 9 38 10 22 0 38 8 47 21 17 26 57
27 71 2 15 -29 12 -49 -10 -73 -11 -12 -20 -32 -20 -45 0 -24 -10 -40 -42 -71
-19 -17 -22 -48 -12 -101 9 -45 44 -40 57 9 5 19 20 47 34 62 18 19 26 39 27
65 1 34 4 38 30 41 35 4 46 -10 46 -62 0 -31 -3 -37 -16 -32 -29 11 -64 -4
-64 -29 0 -29 47 -68 73 -61 11 3 31 -6 50 -24 28 -25 30 -30 20 -53 -10 -20
-20 -26 -60 -29 -40 -4 -52 0 -70 19 -33 34 -68 30 -84 -9 -7 -18 -13 -43 -14
-57 0 -21 -6 -27 -35 -31 -48 -8 -75 -28 -97 -69 -10 -19 -23 -36 -29 -38 -21
-7 -23 51 -3 93 10 22 19 47 19 55 0 14 69 59 92 59 7 0 20 5 28 10 16 10 19
6 -71 98 -42 44 -46 100 -8 105 8 2 19 6 26 10 6 4 14 3 18 -3 7 -12 45 -14
45 -2 0 4 -11 16 -25 26 -14 10 -25 29 -25 41 0 13 -9 26 -24 33 -24 11 -25
10 -28 -30 -2 -34 -9 -45 -33 -59 -52 -31 -115 -58 -151 -65 -22 -4 -42 -17
-55 -35 -11 -16 -33 -36 -49 -46 -17 -9 -30 -23 -30 -30 0 -7 -10 -13 -23 -13
-40 0 -48 -19 -24 -54 33 -47 38 -48 73 -8 27 31 37 37 73 37 40 0 41 1 41 32
0 38 19 85 34 80 5 -2 14 -10 19 -19 13 -20 -13 -78 -42 -96 -23 -14 -28 -50
-8 -58 7 -2 27 2 43 11 25 13 29 13 32 0 3 -15 -45 -105 -57 -105 -3 0 -14 9
-23 19 -9 11 -36 25 -59 31 -56 15 -67 4 -52 -52 8 -28 8 -48 2 -60 -11 -20
-29 -15 -29 6 0 8 -7 19 -15 26 -11 9 -19 8 -39 -7 -14 -10 -26 -23 -26 -29 0
-6 -9 -19 -20 -29 -27 -24 -26 -29 13 -64 25 -24 28 -31 14 -31 -11 0 -22 -12
-29 -30 -14 -42 -54 -51 -79 -19 -25 33 -24 70 6 123 30 54 31 81 5 121 -25
38 -25 45 1 45 15 0 26 14 45 57 14 31 34 69 45 84 27 38 25 59 -7 59 -69 0
-183 -153 -129 -174 22 -8 18 -26 -5 -26 -15 0 -20 -7 -20 -24 0 -32 -16 -41
-36 -22 -19 19 -44 21 -45 4 -1 -7 -2 -17 -3 -23 -3 -21 -59 -106 -77 -116
-10 -5 -19 -16 -19 -24 0 -8 -9 -15 -20 -15 -11 0 -20 -7 -20 -15 0 -8 9 -15
20 -15 11 0 20 5 20 10 0 11 24 22 74 34 26 7 28 5 24 -18 -6 -30 12 -35 36
-10 20 19 36 10 36 -20 0 -46 -47 -62 -72 -24 -19 28 -40 19 -62 -27 -21 -44
-44 -43 -68 3 -9 18 -24 43 -35 54 -13 15 -15 22 -5 25 6 3 12 11 12 19 0 15
29 60 63 98 9 11 17 30 17 43 0 19 5 23 30 23 31 0 40 14 15 24 -20 7 -81 -19
-88 -39 -4 -8 -14 -15 -24 -15 -22 0 -112 -96 -120 -128 -7 -30 12 -72 32 -72
30 0 48 -97 23 -117 -7 -6 -29 -13 -49 -17 -32 -6 -37 -4 -42 16 -4 12 -3 25
1 28 5 3 14 19 20 35 11 26 10 36 -7 71 -11 22 -23 52 -26 67 -12 48 -33 31
-61 -50 -10 -29 -16 -55 -12 -58 3 -3 19 -7 34 -8 22 -2 30 -8 32 -26 3 -20 1
-22 -20 -16 -13 4 -30 15 -40 26 -20 24 -30 24 -51 1 -23 -25 -22 -29 13 -47
17 -9 30 -21 30 -28 0 -6 18 -20 40 -30 36 -17 39 -22 38 -55 0 -23 -9 -44
-21 -56 -20 -19 -20 -19 -41 7 -12 15 -27 27 -34 27 -14 0 -16 -46 -2 -55 6
-3 10 -17 10 -29 0 -18 7 -25 31 -30 26 -5 30 -10 26 -27 -12 -47 29 -70 48
-26 10 22 25 25 80 15 13 -2 23 5 30 20 12 27 26 28 48 4 23 -25 22 -29 -13
-37 -23 -5 -30 -12 -30 -30 0 -13 4 -26 9 -29 5 -3 7 -15 4 -26 -4 -16 1 -21
25 -26 17 -4 39 -15 49 -26 17 -19 17 -20 -7 -38 l-25 -19 24 -25 c19 -20 22
-29 13 -38 -7 -7 -12 -20 -12 -30 0 -11 -11 -23 -26 -28 -20 -8 -25 -15 -21
-33 7 -26 -32 -61 -57 -51 -18 7 -22 24 -6 24 19 0 10 32 -10 37 -24 6 -27 41
-5 50 9 3 24 -2 34 -11 10 -9 21 -16 24 -16 13 0 7 29 -6 37 -18 10 -30 60
-17 68 14 9 13 68 -2 83 -7 7 -22 12 -34 12 -15 0 -29 11 -41 30 -20 34 -40
38 -59 13 -24 -32 -17 -61 19 -74 48 -18 80 -61 68 -92 -9 -23 -12 -25 -48
-15 -33 8 -42 16 -60 59 -18 40 -27 49 -48 49 -21 0 -25 -5 -25 -29 0 -20 -6
-30 -20 -34 -39 -10 -20 -27 31 -27 44 0 50 -2 45 -18 -4 -10 1 -27 9 -38 26
-34 19 -52 -25 -59 -57 -10 -50 -37 10 -39 39 -1 87 -47 95 -89 4 -20 13 -41
21 -48 8 -6 14 -17 14 -24 0 -16 33 -45 52 -45 10 0 15 -10 15 -30 0 -21 -5
-30 -16 -30 -9 0 -24 -8 -33 -17 -9 -10 -24 -24 -33 -32 -18 -15 -15 -30 16
-70 11 -14 35 -48 52 -75 50 -78 51 -79 65 -94 19 -21 15 -24 -18 -17 -22 5
-30 3 -30 -8 0 -32 34 -79 71 -97 21 -11 39 -24 39 -29 0 -5 14 -22 31 -39 24
-24 27 -31 15 -35 -9 -4 -16 -12 -16 -20 0 -17 37 -94 62 -129 15 -22 17 -32
8 -48 -12 -23 1 -50 25 -50 15 0 45 -59 45 -87 0 -10 7 -29 16 -41 37 -54 66
-246 43 -288 -11 -22 -8 -29 33 -81 25 -32 92 -96 150 -143 101 -82 192 -169
184 -177 -5 -5 -73 35 -131 79 -27 21 -60 38 -71 38 -12 0 -39 -16 -60 -35
-33 -31 -40 -34 -50 -20 -26 35 -96 9 -169 -65 -12 -11 -26 -20 -33 -20 -7 0
-15 -7 -18 -15 -7 -18 -30 -20 -40 -4 -4 7 3 19 16 29 15 11 21 23 17 34 -6
15 -10 15 -48 -4 -42 -22 -69 -21 -69 3 0 18 29 44 55 49 13 2 22 13 25 33 3
17 13 41 22 55 21 31 28 101 11 107 -7 3 -17 -7 -23 -21 -5 -14 -16 -26 -23
-26 -7 0 -24 -15 -37 -32 -13 -18 -32 -39 -41 -46 -10 -7 -21 -28 -25 -47 -3
-19 -12 -39 -20 -46 -22 -18 -17 -49 7 -49 35 0 52 -27 54 -87 2 -53 1 -55
-22 -50 -21 4 -24 2 -19 -18 5 -18 1 -24 -17 -29 -35 -9 -47 -7 -47 9 0 25
-31 31 -47 9 -11 -15 -17 -17 -33 -6 -11 6 -33 12 -50 12 -22 0 -30 5 -30 18
0 17 -13 18 -182 18 -150 -1 -191 2 -228 16 -65 25 -249 9 -375 -31 -49 -16
-115 -37 -146 -45 -53 -15 -80 -38 -59 -51 5 -3 35 2 67 11 151 42 169 44 323
29 80 -8 221 -17 313 -19 93 -3 174 -9 180 -15 15 -12 111 -47 154 -56 17 -3
37 -13 44 -21 6 -8 19 -14 29 -14 10 0 43 -11 75 -25 56 -25 57 -27 52 -59 -6
-40 7 -56 45 -56 30 0 102 -32 113 -50 3 -5 21 -10 40 -10 19 0 37 -4 40 -10
3 -5 13 -10 21 -10 24 0 96 -38 153 -81 46 -35 57 -39 76 -31 19 9 22 18 21
55 -1 25 -10 56 -19 71 -9 14 -17 30 -17 35 0 25 -44 80 -92 116 -75 55 -98
77 -92 86 13 22 214 -136 214 -168 0 -9 10 -32 23 -52 12 -20 27 -49 33 -66 6
-16 14 -37 18 -46 5 -10 -2 -20 -19 -29 -21 -11 -25 -20 -23 -44 2 -18 11 -35
23 -41 23 -12 75 -59 75 -69 0 -19 -91 19 -175 73 -22 14 -49 32 -60 39 -11 7
-42 23 -70 37 -27 13 -63 32 -80 41 -56 32 -65 34 -123 34 -46 0 -73 7 -121
31 -66 33 -63 33 -221 11 -51 -7 -72 -6 -97 6 -18 8 -33 16 -33 19 0 18 27 46
58 59 32 14 46 14 100 4 45 -9 67 -9 74 -2 15 15 -89 61 -165 73 -57 9 -60 9
-131 -31 -41 -22 -79 -47 -86 -55 -7 -8 -19 -15 -26 -15 -8 0 -17 -13 -20 -30
-4 -18 -13 -30 -23 -30 -9 0 -35 -18 -59 -39 -52 -46 -120 -80 -323 -160 -86
-34 -166 -72 -177 -84 -12 -12 -46 -35 -77 -51 -31 -17 -73 -45 -94 -63 -22
-18 -84 -62 -138 -98 -54 -35 -110 -73 -124 -84 -34 -26 -59 -36 -59 -24 0 18
56 87 141 173 69 70 100 93 174 129 50 25 113 58 140 74 130 77 251 127 342
142 77 13 102 26 118 58 25 51 59 84 152 147 135 91 130 86 108 110 -24 26
-66 22 -233 -21 -62 -17 -117 -27 -122 -24 -15 9 -2 29 28 43 38 16 76 53 65
62 -10 9 -274 -15 -324 -29 -20 -6 -67 -33 -104 -61 -63 -46 -93 -56 -81 -25
11 28 -11 23 -102 -26 -132 -70 -200 -127 -240 -202 -44 -80 -94 -165 -150
-251 -24 -38 -54 -91 -67 -118 -27 -58 -43 -48 -21 14 20 58 101 218 148 290
8 12 18 35 21 49 8 33 101 158 131 179 38 25 196 177 196 189 0 6 -6 11 -13
11 -21 0 -126 -84 -192 -154 -33 -34 -67 -67 -75 -72 -14 -8 -130 -176 -130
-188 0 -3 -13 -28 -29 -55 -17 -27 -37 -69 -45 -93 -8 -24 -26 -68 -40 -99
-35 -80 -64 -359 -36 -359 12 0 12 1 15 55 1 22 8 54 15 70 20 47 25 6 9 -84
-8 -45 -13 -159 -14 -281 l0 -205 37 -96 c20 -52 48 -118 62 -146 14 -28 26
-55 26 -60 0 -6 9 -20 20 -33 11 -13 20 -28 20 -35 0 -19 47 -109 73 -141 13
-16 47 -63 76 -104 28 -41 69 -97 91 -124 23 -29 42 -66 45 -88 6 -31 15 -45
46 -65 38 -25 58 -59 158 -273 12 -25 36 -70 54 -100 59 -100 68 -114 118
-203 27 -48 49 -94 49 -102 0 -7 5 -17 10 -20 20 -12 50 -85 50 -119 0 -54 12
-76 92 -157 62 -63 85 -98 145 -215 83 -160 139 -228 182 -220 14 4 103 5 196
5 382 -3 442 -2 480 9 29 8 121 8 345 0 382 -13 339 -13 1175 -4 963 10 896 8
929 30 28 18 28 19 22 90 -3 39 -10 98 -15 131 -6 44 -5 63 4 70 7 6 20 47 31
92 15 68 22 83 39 85 19 3 20 9 19 163 -2 190 -18 355 -36 367 -19 12 -34 10
-48 -7 -10 -11 -8 -34 9 -113 18 -82 19 -107 11 -155 -13 -65 -35 -124 -58
-149 -28 -33 -21 -54 -104 297 -17 72 -43 164 -59 205 -55 144 -62 187 -44
276 9 44 25 105 37 137 15 44 18 71 13 110 -12 98 -16 217 -8 217 8 0 40 -47
60 -90 43 -89 87 -191 100 -230 8 -25 23 -63 33 -85 23 -51 85 -249 140 -450
42 -151 82 -341 78 -371 -3 -29 -38 -49 -38 -22 0 7 -9 24 -20 38 -26 34 -26
7 0 -53 11 -25 18 -51 15 -59 -3 -8 1 -41 10 -73 20 -78 19 -85 -8 -53 l-23
26 4 -64 c3 -43 1 -64 -7 -64 -6 0 -11 5 -11 12 0 8 -3 8 -9 2 -6 -5 -4 -30 5
-64 8 -30 14 -60 14 -68 0 -22 -19 -3 -35 34 -8 19 -19 34 -26 34 -11 0 -11
-5 10 -85 6 -22 11 -57 11 -77 0 -57 24 -68 155 -68 61 0 121 1 135 2 14 0
113 0 220 -1 344 -4 400 -3 406 13 3 8 -10 47 -29 88 -50 103 -77 166 -77 176
0 5 -17 51 -38 103 -21 52 -44 116 -52 142 -7 27 -21 65 -32 85 -10 20 -18 45
-18 55 0 10 -8 31 -18 45 -10 15 -24 47 -31 72 -17 57 -31 100 -41 125 -5 11
-19 49 -31 85 -12 36 -30 83 -39 105 -23 51 -48 118 -66 175 -8 25 -19 54 -24
65 -6 11 -26 65 -45 119 -19 55 -41 106 -48 115 -13 15 -97 218 -97 234 0 4
-9 20 -20 36 -12 15 -25 54 -29 87 -5 32 -20 84 -34 114 -32 69 -94 225 -142
355 -20 55 -45 120 -55 145 -10 25 -20 63 -22 84 -3 41 0 44 72 60 16 3 36 23
55 53 l30 48 -2 153 c-1 87 2 152 8 152 5 0 19 -9 31 -19 13 -11 43 -34 67
-53 58 -43 101 -125 101 -188 0 -40 5 -53 33 -82 75 -81 98 -119 123 -206 29
-100 39 -117 109 -192 45 -48 95 -137 95 -169 0 -6 16 -45 36 -86 21 -43 33
-82 30 -92 -4 -11 7 -44 26 -78 17 -33 43 -85 58 -115 15 -30 60 -111 99 -178
39 -68 71 -128 71 -132 0 -8 54 -178 135 -425 50 -152 68 -223 62 -240 -8 -19
-37 -20 -37 -1 0 7 -7 19 -16 27 -13 10 -17 10 -23 0 -9 -14 -43 25 -75 84
-20 39 -52 75 -65 75 -25 0 -19 -24 19 -79 22 -33 40 -68 40 -79 0 -10 27 -76
60 -145 33 -70 60 -131 60 -135 0 -5 13 -33 30 -63 37 -67 37 -78 3 -105 -26
-20 -27 -24 -16 -55 18 -52 28 -169 14 -169 -6 0 -11 9 -11 20 0 11 -4 20 -10
20 -5 0 -10 7 -10 15 0 8 -5 15 -10 15 -6 0 -9 -3 -9 -7 4 -23 -4 -21 -32 6
-32 33 -55 41 -46 17 10 -26 19 -86 13 -86 -3 0 -19 24 -36 53 -17 28 -42 66
-56 82 l-26 30 7 -35 c4 -19 9 -45 12 -57 3 -13 1 -23 -4 -23 -10 0 -34 44
-79 145 -14 33 -28 54 -31 48 -5 -14 26 -105 72 -213 18 -41 36 -86 40 -100
13 -50 37 -91 60 -106 34 -22 127 -29 189 -14 43 10 72 10 147 0 100 -13 598
-18 618 -6 13 9 15 169 2 229 -5 23 -19 89 -31 147 -12 58 -28 121 -36 140 -7
19 -21 66 -30 104 -9 39 -23 86 -32 105 -22 53 -72 274 -82 368 -5 45 -23 126
-40 180 -50 160 -58 191 -95 338 -19 77 -45 175 -59 217 -14 42 -34 123 -46
180 -26 133 -58 244 -81 283 -11 16 -19 44 -19 61 0 17 -9 43 -20 57 -11 14
-20 35 -20 47 0 13 -11 27 -31 38 -54 29 -79 53 -79 73 0 27 -73 181 -112 235
-21 29 -48 53 -73 64 -22 10 -73 47 -113 84 -58 53 -77 65 -96 60 -18 -4 -37
6 -84 45 -33 28 -63 55 -67 61 -3 5 -17 10 -30 10 -21 0 -76 26 -190 90 -22
12 -45 26 -50 30 -6 5 -37 18 -70 31 -33 12 -65 25 -71 30 -5 4 -19 6 -31 3
-21 -6 -40 16 -145 163 -13 17 -34 37 -48 44 -42 20 -163 59 -181 59 -28 0
-69 22 -69 37 0 7 -9 13 -20 13 -11 0 -20 -7 -20 -15 0 -8 -4 -15 -10 -15 -5
0 -10 7 -10 15 0 8 -4 15 -9 15 -5 0 -16 -7 -25 -15 -21 -22 -40 -19 -70 11
-48 49 -32 78 50 89 65 8 94 38 94 96 0 22 5 50 11 61 17 32 -6 133 -41 177
-26 33 -29 43 -29 118 -1 110 -6 129 -46 147 -55 27 -74 16 -35 -19 24 -22 27
-77 5 -128 -16 -38 -32 -48 -64 -40 -17 4 -21 1 -21 -18 -1 -52 -53 -84 -172
-106 -24 -5 -28 -10 -28 -40 0 -34 18 -63 39 -63 13 0 36 -45 46 -87 6 -28 4
-33 -13 -33 -10 0 -33 18 -51 40 -37 46 -43 48 -56 18 -6 -13 -19 -24 -30 -26
-11 -2 -30 -14 -43 -25 -25 -23 -25 -22 -53 27 -8 14 -13 15 -19 6 -6 -9 -19
-5 -55 14 -26 15 -50 25 -52 22 -5 -4 49 -68 75 -90 55 -45 120 -121 137 -162
19 -43 22 -141 6 -157 -7 -7 -21 -2 -45 16 -37 29 -66 35 -66 15 0 -7 -3 -23
-6 -35 -5 -18 1 -25 32 -40 32 -15 40 -24 42 -52 3 -32 -22 -71 -47 -71 -5 0
-11 -12 -13 -27 -2 -23 -8 -29 -35 -31 -28 -3 -32 -7 -35 -35 -4 -37 -22 -45
-120 -46 -55 -1 -68 2 -68 14 0 9 -7 18 -15 21 -8 4 -15 16 -15 29 0 25 -29
55 -53 55 -9 0 -19 5 -22 10 -3 6 -15 10 -25 10 -10 0 -27 11 -38 25 -11 14
-24 25 -30 25 -11 0 -79 -80 -98 -115 -6 -12 -15 -35 -18 -52 -6 -27 -3 -34
23 -53 40 -28 40 -44 0 -35 -40 9 -151 -24 -156 -46 -10 -36 -132 -8 -168 39
-5 7 -34 15 -64 19 -54 6 -54 6 -47 -18 4 -13 10 -37 13 -54 3 -16 17 -39 31
-50 37 -29 125 -63 196 -76 34 -5 84 -15 111 -21 61 -13 292 -131 320 -163 11
-12 30 -26 42 -29 28 -9 58 -51 67 -92 6 -26 1 -36 -29 -67 -19 -20 -35 -40
-35 -45 0 -18 -33 -37 -57 -34 -13 2 -31 -2 -40 -9 -10 -9 -55 -14 -137 -16
-66 -1 -148 -3 -181 -4 -33 -1 -80 3 -105 9 -110 27 -166 42 -185 51 -11 6
-39 15 -61 21 -51 12 -64 38 -34 62 l22 18 -23 20 c-13 10 -29 19 -36 20 -7 0
-24 11 -39 25 -31 28 -97 34 -129 12 -25 -19 -11 -37 30 -37 31 0 35 -3 41
-34 7 -42 -1 -59 -27 -51 -11 4 -27 1 -36 -6 -13 -11 -18 -10 -34 10 -19 23
-20 23 -34 5 -11 -13 -14 -32 -9 -63 8 -59 10 -64 44 -83 28 -16 30 -21 30
-77 0 -64 12 -84 30 -51 6 11 19 20 30 20 10 0 20 4 22 9 2 5 14 11 28 13 23
3 25 -1 28 -39 3 -48 15 -52 82 -33 28 8 37 7 54 -9 12 -10 33 -26 48 -35 25
-16 29 -16 75 5 26 12 53 22 58 21 6 -1 65 -3 132 -6 67 -3 131 -10 142 -15
11 -6 29 -11 40 -11 12 0 38 -9 58 -20 21 -11 50 -20 65 -20 16 0 28 -4 28 -9
0 -6 21 -16 48 -24 40 -11 47 -17 44 -36 -1 -13 3 -30 9 -37 9 -11 7 -20 -6
-40 -9 -14 -14 -31 -12 -39 6 -15 -13 -46 -56 -92 -38 -40 -47 -41 -47 -5 0
16 -8 32 -20 40 -12 7 -20 23 -20 40 0 21 -7 32 -27 41 -20 9 -28 9 -34 0 -5
-8 -17 0 -39 25 -18 20 -38 36 -46 36 -8 0 -22 -17 -32 -37 -13 -29 -23 -38
-42 -38 -24 0 -28 -7 -46 -74 -3 -8 -13 -11 -27 -8 -38 9 -111 37 -147 56 -19
10 -50 22 -67 26 -18 3 -35 11 -38 16 -4 5 -17 9 -31 9 -18 0 -31 10 -46 36
l-21 36 -66 -7 c-36 -4 -88 -6 -114 -6 -41 2 -49 -1 -54 -19 -8 -29 -54 -22
-70 11 -20 39 -16 180 7 241 20 52 26 88 14 88 -21 0 -48 -28 -70 -73 -15 -29
-31 -55 -36 -58 -6 -4 -14 -28 -19 -55 -10 -53 -14 -480 -5 -504 3 -8 10 -71
16 -140 5 -69 14 -150 20 -180 19 -102 22 -162 8 -158 -7 3 -17 22 -21 44 -5
21 -13 46 -17 55 -4 8 -11 46 -15 83 -4 37 -14 73 -21 81 -8 7 -14 31 -14 52
0 54 -12 70 -42 54 -13 -6 -40 -21 -60 -31 -20 -11 -42 -28 -50 -38 -23 -32
-36 -34 -69 -10 -20 14 -33 19 -36 12 -2 -6 -10 -20 -17 -30 -12 -15 -16 -16
-30 -5 -9 7 -16 20 -16 27 0 8 -4 14 -10 14 -5 0 -10 -9 -10 -20 0 -23 -15
-27 -24 -5 -8 22 -35 18 -71 -9 -18 -14 -36 -21 -41 -16 -5 4 -20 10 -34 12
-29 4 -70 68 -70 111 0 15 -5 27 -11 27 -9 0 -10 -24 -6 -83 5 -80 -2 -123
-17 -98 -18 28 -26 4 -26 -73 0 -84 -11 -116 -25 -73 -4 12 -10 87 -14 167 -5
124 -8 145 -22 142 -26 -4 -39 127 -34 356 3 124 1 202 -5 202 -5 0 -12 11
-16 25 -3 14 -10 25 -14 25 -16 0 -62 -81 -85 -149 -25 -74 -61 -276 -57 -323
7 -79 -9 -335 -21 -355 -4 -7 -9 -85 -12 -175 -6 -237 -13 -298 -36 -298 -25
0 -31 38 -31 211 1 578 18 800 83 1079 32 136 45 191 53 232 7 32 -10 46 -31
26 -8 -8 -29 -57 -47 -109 -19 -52 -44 -106 -56 -119 -23 -27 -87 -198 -120
-323 -7 -26 -17 -50 -21 -53 -5 -3 -9 -13 -9 -22 0 -9 -11 -27 -24 -41 -42
-47 -58 -121 -58 -277 0 -79 5 -165 12 -193 13 -57 7 -128 -15 -157 -11 -16
-14 -16 -19 -4 -15 44 -30 259 -30 430 l-1 195 43 115 c49 133 156 362 248
535 45 84 83 140 128 187 51 54 61 70 50 79 -18 15 -40 6 -109 -46 -33 -25
-67 -45 -75 -45 -9 0 -47 -32 -85 -71 -39 -38 -123 -107 -188 -152 -129 -89
-147 -100 -192 -115 -16 -5 -38 -13 -47 -17 -32 -13 -19 12 15 30 62 32 78 43
105 68 15 14 50 43 79 64 29 22 70 55 91 75 22 20 57 45 78 56 21 11 69 44
106 73 36 30 98 74 138 98 39 24 76 51 83 60 28 37 172 113 287 149 88 29 202
54 209 46 3 -3 -6 -16 -21 -28 -16 -12 -28 -27 -28 -32 0 -6 -9 -19 -20 -29
-40 -36 -19 -58 30 -32 42 22 147 40 197 33 111 -14 207 -34 211 -45 5 -15 87
-14 115 1 44 23 143 129 170 181 18 37 30 81 37 143 23 193 31 222 87 280 44
48 141 99 213 113 35 7 77 21 91 32 15 10 32 19 38 19 6 0 11 7 11 16 0 10 -6
14 -17 10 -10 -2 -28 -7 -40 -11 -19 -5 -40 10 -120 87 -116 110 -183 180
-183 190 0 4 -21 22 -47 39 -27 18 -65 48 -87 67 -21 19 -57 42 -80 53 -46 20
-91 64 -130 127 -32 51 -68 89 -114 121 -25 17 -30 26 -21 32 7 4 17 5 21 3 5
-3 11 2 14 10 9 23 19 20 35 -11 8 -14 52 -60 98 -100 52 -46 97 -95 118 -131
29 -49 45 -63 99 -92 37 -19 72 -46 82 -62 11 -19 25 -28 42 -28 41 0 79 -31
108 -90 41 -80 68 -75 107 17 1 1 32 -8 71 -21 96 -32 163 -40 205 -22 19 7
72 17 118 21 100 8 111 12 111 36 0 10 7 19 15 19 8 0 15 -4 15 -10 0 -5 -4
-10 -10 -10 -5 0 -10 -7 -10 -15 0 -8 4 -15 10 -15 19 0 80 34 80 44 -1 16
-23 41 -43 49 -15 6 -17 17 -11 109 12 222 32 295 94 336 36 24 44 37 54 84 9
39 44 68 83 68 18 0 33 -4 33 -10 0 -5 -4 -10 -9 -10 -17 0 -33 -67 -21 -90
10 -20 40 -28 40 -12 0 5 9 19 19 31 13 15 21 18 26 10 4 -6 2 -14 -4 -18 -16
-10 -19 -107 -4 -122 16 -16 43 5 43 32 0 11 3 19 6 19 14 0 50 -25 67 -47 23
-29 57 -31 57 -3 0 11 12 27 26 37 25 16 27 16 38 -3 16 -28 24 -102 11 -115
-7 -8 -6 -13 4 -17 8 -3 27 -18 42 -35 25 -27 27 -28 33 -9 4 11 2 31 -5 44
-9 20 -8 32 6 57 10 21 13 37 7 44 -5 7 -6 44 -1 87 4 41 8 83 8 93 1 9 7 17
14 17 7 0 18 9 25 20 7 11 19 20 27 20 13 0 95 100 95 116 0 4 -8 13 -17 20
-16 12 -16 15 -3 24 11 7 16 5 18 -5 5 -21 46 -19 66 4 21 23 47 106 40 126
-3 8 1 24 10 36 14 21 14 25 -5 56 -27 43 -22 77 11 81 18 2 30 14 43 41 20
43 22 61 6 61 -6 0 -1 11 12 24 44 46 66 197 32 222 -23 16 -3 40 24 30 14 -6
15 -9 4 -15 -7 -5 -10 -14 -7 -20 13 -20 52 -12 78 17 47 49 57 81 55 175 -2
84 -1 88 25 110 15 12 35 39 43 60 15 37 15 43 -5 103 -14 45 -19 81 -16 121
2 32 5 63 5 69 1 7 11 14 22 17 15 4 20 11 16 21 -4 10 -1 16 8 16 17 0 39 36
30 50 -3 5 4 14 15 20 31 16 25 84 -7 88 -18 3 -23 10 -23 32 0 38 -9 60 -26
60 -10 0 -12 11 -8 48 3 26 8 53 10 61 2 7 -1 20 -7 27 -15 18 -1 36 22 29 30
-10 44 32 25 70 -10 19 -12 33 -6 39 6 6 10 17 10 26 0 10 9 27 20 40 23 27
23 25 9 51 -10 20 -11 20 -31 3 -19 -18 -20 -18 -39 6 -26 34 -25 100 1 123
34 29 27 83 -16 123 -26 25 -34 39 -29 54 4 13 -2 37 -14 61 -12 22 -21 48
-21 58 0 10 -6 24 -14 30 -8 6 -16 24 -19 39 -18 90 -26 115 -42 132 -10 11
-24 20 -32 20 -8 0 -13 11 -13 30 0 21 -8 34 -27 47 -16 9 -38 28 -50 42 l-22
26 -41 -46 c-28 -33 -47 -45 -59 -42 -10 3 -22 0 -25 -6 -11 -17 -26 -13 -26
7 0 10 13 31 29 46 21 20 30 40 34 74 6 56 -6 82 -37 82 -21 0 -25 -8 -37 -60
-13 -59 -14 -60 -47 -60 -25 0 -33 4 -29 14 8 20 -25 46 -50 40 -17 -5 -27 3
-49 35 -21 32 -24 45 -16 53 9 9 16 7 28 -10 20 -29 38 -28 58 3 23 34 54 33
58 -2 2 -20 9 -28 23 -28 35 0 29 44 -15 112 -42 65 -73 92 -85 72z m-304
-274 c11 4 32 1 48 -6 23 -10 30 -21 34 -49 6 -52 -1 -61 -42 -58 -27 2 -37 8
-39 23 -2 11 -11 28 -20 38 -15 17 -17 16 -44 -10 -15 -14 -30 -24 -33 -22 -6
6 -9 36 -7 72 3 37 38 51 64 25 12 -12 26 -17 39 -13z m-990 -32 c-2 -32 -10
-52 -22 -61 -21 -15 -26 -42 -6 -42 13 0 77 62 77 75 0 12 70 75 84 75 32 0
48 -48 22 -69 -8 -7 -18 -26 -21 -42 -4 -16 -15 -34 -26 -39 -38 -21 -17 -50
37 -50 13 0 24 -3 24 -7 0 -5 18 -26 39 -48 57 -60 76 -101 61 -134 l-12 -26
-15 23 c-18 26 -45 29 -63 6 -7 -8 -23 -14 -34 -13 -12 2 -31 -2 -43 -9 -12
-7 -26 -12 -32 -12 -15 0 -14 40 2 73 9 20 17 25 33 21 30 -8 39 12 20 41 -9
13 -16 35 -16 49 0 30 -38 42 -86 26 -43 -15 -64 -7 -64 22 0 16 -9 27 -29 36
-39 17 -42 29 -22 90 16 51 25 59 71 61 24 1 25 -1 21 -46z m725 -48 c-4 -51
-19 -75 -47 -75 -31 0 -43 37 -23 68 43 65 75 69 70 7z m489 2 c-1 -42 -11
-57 -40 -57 -22 0 -24 3 -19 33 9 52 12 57 36 57 19 0 23 -5 23 -33z m-635
-13 c0 -8 -4 -12 -10 -9 -5 3 -10 13 -10 21 0 8 5 12 10 9 6 -3 10 -13 10 -21z
m-64 -58 c23 -24 16 -44 -17 -51 -17 -4 -32 -5 -34 -3 -4 4 26 68 32 68 2 0
11 -6 19 -14z m429 -36 c7 -12 -30 -50 -50 -50 -21 0 -30 27 -15 45 14 17 56
20 65 5z m-173 -27 c10 -9 18 -20 18 -25 0 -14 -22 -9 -36 10 -25 33 -13 44
18 15z m503 -2 c3 -5 1 -13 -5 -16 -15 -9 -43 3 -35 15 8 13 32 13 40 1z
m-582 -48 c9 -9 -12 -33 -29 -33 -8 0 -14 9 -14 20 0 19 28 28 43 13z m-448
-214 c17 -18 -33 -50 -73 -47 -44 4 -50 20 -20 48 24 22 70 22 93 -1z m1613
-137 c2 -7 -3 -12 -12 -12 -9 0 -16 7 -16 16 0 17 22 14 28 -4z m-1870 -55 c2
-15 -1 -27 -7 -27 -6 0 -11 -7 -11 -15 0 -13 -50 -43 -54 -33 -1 2 -11 18 -24
36 -18 26 -20 36 -12 52 9 17 19 20 58 17 43 -3 47 -5 50 -30z m-441 -25 c10
2 18 -3 17 -9 -1 -7 -2 -24 -2 -38 -1 -15 -8 -25 -17 -25 -8 0 -24 -9 -35 -20
-24 -24 -60 -27 -60 -5 0 9 9 15 24 15 30 0 41 26 22 55 -17 26 -2 52 20 34 7
-6 21 -9 31 -7z m233 -38 c0 -16 -36 -19 -45 -4 -4 6 -1 17 5 26 14 16 40 2
40 -22z m-180 -119 c0 -2 -12 -16 -26 -30 -30 -31 -25 -43 11 -27 35 16 45 15
45 -4 0 -9 -9 -18 -20 -21 -24 -6 -26 -19 -5 -27 24 -9 52 7 77 43 29 43 48
50 48 19 1 -24 47 -85 57 -75 3 3 1 19 -5 36 -6 16 -8 32 -4 35 9 10 42 -47
42 -75 0 -14 9 -34 20 -44 30 -27 25 -50 -20 -95 -49 -49 -117 -70 -156 -49
-21 11 -27 11 -34 -1 -7 -12 -14 -11 -44 5 -38 21 -57 15 -36 -11 18 -21 -4
-36 -41 -29 -17 4 -30 0 -39 -10 -15 -18 -45 -19 -106 -4 -51 13 -74 2 -74
-35 0 -19 4 -22 30 -18 18 3 40 -2 56 -13 16 -10 35 -14 50 -11 30 8 76 -3 72
-16 -2 -6 -42 -25 -88 -42 -102 -37 -110 -42 -138 -83 -20 -28 -27 -32 -54
-26 -27 5 -30 4 -25 -10 4 -10 10 -24 13 -32 4 -11 0 -15 -15 -15 -12 0 -21
-6 -21 -12 0 -9 -3 -9 -9 1 -6 9 -6 22 0 33 6 10 7 23 4 28 -3 6 1 20 9 32 9
12 16 40 16 61 0 45 22 92 50 107 26 14 25 40 -1 74 -15 19 -19 34 -14 56 6
28 25 43 25 19 0 -19 24 -3 40 27 20 35 46 43 55 15 9 -29 24 -26 67 14 25 23
37 43 35 57 -1 17 4 24 21 26 23 3 24 1 20 -44 -2 -31 1 -48 10 -51 7 -3 12 4
12 16 0 11 5 23 10 26 15 9 12 51 -5 65 -24 20 -18 49 19 86 29 29 66 45 66
29z m364 -75 c18 -46 20 -76 6 -85 -14 -9 -80 22 -80 38 0 8 -10 21 -21 29
-16 10 -20 20 -15 36 6 18 15 22 51 22 41 0 44 -2 59 -40z m-942 -138 c6 -39
0 -52 -20 -45 -22 9 -41 34 -42 56 0 12 8 17 29 17 24 0 29 -5 33 -28z m108
-21 c0 -24 -42 -75 -58 -70 -7 3 -1 20 16 46 30 46 42 53 42 24z m-250 -5 c0
-24 -45 -81 -67 -84 -18 -3 -21 3 -25 37 -2 22 -2 45 0 50 6 17 92 14 92 -3z
m2170 -56 c41 -22 85 -44 97 -49 12 -6 28 -20 35 -31 7 -12 27 -28 45 -35 32
-13 39 -34 47 -128 1 -21 -58 -48 -109 -50 l-30 -2 3 58 c3 49 0 62 -21 87
-14 16 -27 33 -29 38 -7 17 -140 82 -181 88 -72 9 -88 14 -82 24 3 6 26 10 49
10 24 0 57 7 72 15 16 8 29 15 29 15 0 0 34 -18 75 -40z m-1972 -43 c16 -18
15 -18 -9 -12 -17 4 -36 -1 -62 -19 -41 -28 -57 -32 -57 -15 0 5 -14 15 -32
21 l-31 11 23 19 c32 26 143 23 168 -5z m1901 -103 c25 -21 31 -33 31 -65 0
-46 -10 -50 -27 -11 -14 31 -60 62 -93 62 -65 0 -117 -72 -105 -146 4 -29 2
-44 -4 -44 -6 0 -11 4 -11 9 0 5 -17 16 -39 24 -36 15 -38 18 -45 72 -4 33 -2
64 4 75 15 29 66 53 140 65 72 13 91 8 149 -41z m-742 -47 c7 -5 10 -13 7 -18
-3 -5 2 -12 10 -15 26 -10 50 -123 32 -153 -5 -7 -3 -18 3 -24 16 -16 14 -37
-4 -37 -21 0 -19 -10 10 -41 18 -18 27 -40 30 -73 2 -25 -1 -46 -6 -46 -18 0
-9 -34 17 -61 28 -30 65 -30 57 0 -5 20 29 31 98 31 35 0 40 -4 53 -35 11 -25
21 -35 37 -35 30 0 48 -28 48 -75 l0 -40 -17 24 c-36 53 -48 61 -94 67 -25 4
-72 3 -103 -1 -49 -6 -62 -12 -111 -59 -31 -29 -71 -58 -90 -65 -33 -12 -37
-11 -87 26 -83 62 -100 70 -154 78 -52 7 -90 -4 -106 -31 -4 -7 -14 -11 -22
-7 -11 3 -13 1 -9 -10 3 -8 1 -18 -5 -22 -6 -3 -11 -18 -11 -33 0 -21 12 -36
51 -64 27 -21 61 -38 74 -38 13 0 27 -4 30 -10 3 -5 14 -10 24 -10 24 0 60
-30 44 -36 -15 -7 -17 -44 -3 -44 6 0 10 -9 10 -20 0 -16 -7 -20 -31 -20 -27
0 -30 3 -23 22 6 20 1 17 -33 -13 -23 -21 -49 -40 -59 -43 -11 -4 -27 -24 -37
-46 -17 -37 -22 -40 -57 -40 -28 0 -43 -6 -54 -21 -11 -16 -21 -20 -40 -15
-22 5 -28 2 -36 -19 -15 -39 -33 -31 -27 13 7 51 17 93 27 117 44 107 50 133
50 197 0 61 -2 71 -20 75 -20 5 -26 23 -13 36 3 4 12 2 18 -3 9 -8 18 -1 34
25 11 20 21 40 21 44 0 4 20 31 45 60 51 60 56 76 20 67 -55 -14 -75 -27 -104
-69 -32 -47 -79 -97 -111 -120 -10 -7 -39 -36 -66 -65 -36 -41 -44 -56 -34
-62 10 -6 11 -14 2 -37 -6 -15 -14 -46 -17 -68 -4 -22 -13 -54 -21 -72 -19
-41 -30 -123 -17 -123 14 0 39 31 47 58 4 12 11 22 15 22 4 0 13 11 19 25 7
15 20 25 32 25 19 0 20 -4 14 -52 -7 -67 -23 -118 -35 -118 -12 0 -11 -115 2
-165 6 -22 14 -59 19 -83 6 -24 19 -64 30 -90 16 -35 22 -72 24 -148 2 -55 6
-106 11 -113 14 -23 15 -91 1 -91 -13 0 -53 80 -76 153 -7 24 -18 37 -29 37
-10 0 -28 11 -41 25 -23 25 -50 33 -50 16 0 -16 30 -80 40 -86 5 -3 19 -26 31
-51 11 -25 35 -62 54 -83 19 -21 39 -49 44 -63 8 -22 5 -30 -20 -54 -16 -15
-32 -25 -35 -21 -3 3 -8 26 -10 50 -4 49 -44 150 -65 163 -8 5 -20 23 -28 39
-7 17 -17 38 -22 47 -5 10 -9 27 -9 38 0 11 -5 20 -10 20 -19 0 -109 93 -120
124 -18 46 -31 79 -41 98 -5 10 -9 31 -9 46 0 16 -13 56 -30 88 -16 32 -30 67
-30 76 0 9 -5 20 -11 23 -6 4 -8 14 -5 22 4 9 1 22 -6 31 -7 8 -14 34 -14 56
-2 55 -18 122 -34 141 -8 10 -13 56 -14 137 -2 116 0 124 21 145 21 20 22 29
18 95 l-5 73 45 50 c38 43 44 47 45 28 0 -35 36 -30 48 7 6 16 23 41 38 55 16
15 24 31 20 40 -7 19 17 20 32 2 6 -7 9 -22 6 -34 -4 -15 0 -23 15 -28 22 -7
28 -29 11 -40 -17 -11 -11 -43 11 -59 26 -17 17 -36 -17 -36 -27 0 -32 -17 -7
-27 34 -13 190 29 323 89 61 27 167 108 174 133 3 11 6 30 6 43 0 18 6 22 31
22 24 0 40 9 63 36 29 34 33 35 59 23 34 -15 38 -11 44 46 3 25 10 48 16 52
35 21 107 22 134 0z m-1267 -2 c0 -16 -35 -21 -45 -6 -4 8 9 15 38 20 4 0 7
-6 7 -14z m663 -61 c3 -4 -12 -20 -34 -36 -44 -32 -63 -69 -55 -110 3 -16 0
-28 -7 -31 -36 -13 21 -24 141 -27 7 0 10 -5 6 -11 -3 -6 -20 -9 -38 -6 -17 2
-48 -2 -70 -9 -33 -12 -43 -12 -69 1 -17 8 -42 15 -56 15 -29 0 -60 35 -38 43
8 3 1 15 -17 33 -29 28 -29 28 -8 37 12 6 22 18 22 27 0 37 85 79 161 80 31 0
59 -3 62 -6z m1411 -73 c4 -5 -9 -24 -26 -43 l-33 -33 29 -3 c21 -3 26 -6 16
-12 -8 -5 -25 -3 -42 6 -15 8 -33 13 -40 12 -7 -2 -13 6 -13 16 0 13 11 23 32
30 18 6 38 17 45 24 14 14 25 15 32 3z m-429 -11 c3 -5 1 -10 -4 -10 -6 0 -11
5 -11 10 0 6 2 10 4 10 3 0 8 -4 11 -10z m93 -38 c14 -21 13 -22 -16 -22 -21
0 -31 6 -35 20 -9 35 28 37 51 2z m-1552 -83 c3 -6 0 -15 -7 -20 -14 -8 -32 9
-23 23 7 11 22 10 30 -3z m1584 -29 c22 -11 44 -29 49 -39 6 -10 22 -22 36
-25 14 -4 25 -10 25 -15 0 -4 14 -25 30 -46 21 -27 30 -49 30 -76 0 -21 5 -39
13 -42 8 -2 11 -21 10 -56 -2 -37 5 -68 22 -107 14 -31 29 -72 35 -92 5 -21
14 -44 20 -52 9 -13 11 -13 20 0 5 8 10 27 10 43 0 30 11 35 30 12 11 -13 11
-29 2 -79 -7 -35 -12 -99 -12 -143 0 -116 -10 -175 -27 -169 -8 3 -21 -1 -30
-9 -34 -35 -52 -4 -88 153 -14 62 -23 117 -20 122 3 5 18 5 35 0 l30 -9 0 52
c0 54 -30 168 -50 192 -7 8 -54 42 -104 75 -77 51 -97 71 -125 118 -17 31 -45
77 -61 102 -16 25 -29 53 -29 62 -1 20 18 28 41 17 13 -7 20 -4 28 11 13 25
31 25 80 0z m-1590 -62 c0 -9 -4 -19 -9 -22 -5 -4 -15 -29 -22 -56 -7 -28 -16
-50 -21 -50 -13 0 -8 74 6 93 9 11 12 33 9 60 l-5 42 21 -25 c11 -14 21 -33
21 -42z m2236 2 c36 -87 29 -173 -11 -140 -24 20 -90 3 -103 -26 -15 -31 -24
-30 -50 5 -21 28 -21 58 0 72 10 7 78 119 78 129 0 10 28 19 49 16 8 0 25 -26
37 -56z m431 -9 c6 -16 7 -35 2 -42 -11 -18 -16 -11 -24 34 -8 44 6 49 22 8z
m-2903 -49 c20 1 36 5 36 10 0 4 6 8 14 8 15 0 43 -67 32 -77 -3 -3 -12 0 -21
7 -21 18 -65 4 -65 -20 0 -11 -4 -20 -8 -20 -13 0 -50 55 -58 85 -6 25 -5 26
13 16 12 -6 37 -10 57 -9z m50 -159 c-4 -10 -8 -31 -8 -47 -1 -24 4 -31 24
-36 34 -8 40 -40 7 -40 -39 0 -51 -23 -33 -59 10 -19 12 -32 6 -36 -13 -8 -30
3 -30 20 0 8 -9 19 -20 25 -11 6 -20 17 -20 24 0 7 -9 24 -21 37 -20 23 -20
24 -2 28 27 5 40 19 48 49 8 34 23 52 42 52 11 0 13 -5 7 -17z m2273 -24 c17
-17 -31 -139 -63 -157 -8 -5 -18 -27 -21 -51 -3 -23 -9 -43 -12 -46 -11 -6 7
127 19 139 5 5 10 23 10 38 0 36 26 88 43 88 7 0 18 -5 24 -11z m-1042 -95
c41 -27 29 -35 -52 -34 -43 0 -107 -2 -143 -4 -47 -4 -57 -3 -35 3 17 5 44 14
60 20 25 8 64 17 138 30 4 0 19 -6 32 -15z m-113 -126 c-9 -9 -12 -7 -12 12 0
19 3 21 12 12 9 -9 9 -15 0 -24z m-1037 -37 c10 -16 23 -27 27 -25 4 3 8 -2 8
-10 0 -9 -6 -16 -14 -16 -15 0 -25 -27 -19 -47 3 -7 13 -13 24 -13 10 0 19 -6
19 -14 0 -8 7 -16 15 -20 19 -7 20 -36 0 -36 -7 0 -18 -7 -23 -17 -14 -24 -39
-10 -56 32 -12 27 -13 41 -5 54 9 13 7 27 -10 60 -15 32 -18 48 -10 62 13 26
21 24 44 -10z m2095 -42 c0 -10 -7 -19 -15 -19 -15 0 -21 31 -9 43 11 10 24
-3 24 -24z m460 2 c0 -6 -4 -13 -10 -16 -5 -3 -10 1 -10 9 0 9 5 16 10 16 6 0
10 -4 10 -9z m-1390 -51 c0 -6 16 -10 36 -8 23 2 39 -2 41 -9 3 -9 -6 -13 -29
-13 -19 0 -39 -5 -46 -12 -9 -9 -22 -8 -54 1 -24 8 -49 15 -55 17 -27 7 -13
25 15 19 16 -3 39 -1 53 4 32 13 39 13 39 1z m144 -6 c22 -9 20 -24 -3 -24
-21 0 -34 13 -24 24 8 7 8 7 27 0z m-314 -44 c0 -6 -8 -13 -17 -16 -82 -27
-148 -73 -250 -175 l-23 -22 0 26 c0 16 6 27 14 27 16 0 28 24 20 44 -7 17 45
79 62 72 7 -3 15 2 18 10 3 8 12 14 20 14 7 0 27 7 42 15 33 17 114 20 114 5z
m375 -62 c33 -6 71 -19 84 -29 25 -20 88 -36 98 -25 9 8 -28 35 -48 36 -9 0
-27 9 -40 19 l-24 19 57 0 c57 -1 58 -1 123 -66 67 -67 74 -85 38 -90 -14 -2
-30 8 -48 32 -33 43 -49 46 -41 9 6 -25 3 -29 -29 -39 -27 -9 -39 -8 -55 3
-17 12 -26 12 -55 2 -30 -11 -37 -10 -54 5 -19 17 -20 17 -41 -4 -17 -17 -31
-20 -73 -18 -51 3 -52 4 -55 36 -4 40 -23 38 -34 -3 -4 -15 -13 -32 -20 -36
-21 -14 -87 -10 -118 6 -28 14 -34 14 -76 -6 -26 -11 -55 -18 -65 -16 -11 3
-35 0 -54 -6 -53 -16 -53 -2 0 45 66 59 110 88 132 88 11 0 23 4 29 8 5 5 28
14 51 22 36 11 47 11 82 -3 39 -16 42 -16 88 8 27 14 57 23 68 20 11 -3 47
-11 80 -17z m-768 -70 c-3 -8 -6 -5 -6 6 -1 11 2 17 5 13 3 -3 4 -12 1 -19z
m791 -222 c32 13 82 16 82 4 0 -6 -111 -50 -126 -50 -17 0 -64 -25 -64 -34 0
-4 10 -6 23 -3 61 16 107 19 107 8 0 -6 -12 -16 -27 -22 -54 -22 -78 -33 -92
-43 -7 -6 -23 -10 -35 -11 -14 0 -21 -6 -21 -20 0 -11 -11 -26 -25 -34 -32
-18 -109 -24 -126 -10 -18 15 -45 4 -38 -16 5 -11 -1 -15 -21 -15 -31 0 -118
21 -125 30 -3 3 -20 12 -39 20 -32 13 -100 76 -101 92 0 4 -16 29 -35 54 -41
53 -39 71 3 31 22 -21 38 -27 74 -27 44 0 82 -12 178 -59 30 -15 47 -18 54
-11 13 13 -9 30 -39 30 -21 0 -45 17 -45 32 0 4 11 8 24 8 13 0 34 8 47 18 20
16 45 19 141 21 65 1 128 5 140 10 16 6 28 4 38 -4 12 -11 21 -11 48 1z m231
-86 c-6 -16 -14 -30 -18 -30 -4 0 -13 -11 -19 -25 -6 -14 -18 -25 -27 -25 -8
0 -15 -4 -15 -10 0 -5 -17 -12 -37 -16 -21 -4 -50 -13 -65 -20 -15 -8 -37 -14
-50 -13 -24 0 -26 0 87 50 23 11 57 40 80 69 46 58 81 69 64 20z m-834 -89
c11 -5 36 -23 54 -40 18 -17 38 -31 45 -31 21 -1 63 -45 70 -73 8 -35 43 -34
38 1 -2 12 2 22 7 22 6 0 11 -7 11 -16 0 -8 14 -20 30 -25 17 -6 30 -15 30
-20 0 -12 -35 -29 -62 -29 -13 0 -34 -7 -46 -16 -18 -12 -20 -19 -11 -30 12
-14 54 -14 241 5 126 12 228 2 228 -22 0 -6 18 -30 40 -51 45 -45 49 -69 20
-121 -27 -49 -26 -83 2 -87 13 -2 24 -11 26 -20 3 -15 -3 -17 -40 -13 -24 2
-73 7 -111 11 -54 4 -77 12 -118 40 -53 35 -69 36 -69 3 0 -10 -7 -19 -15 -19
-8 0 -15 -4 -15 -10 0 -5 -11 -12 -25 -16 -14 -3 -29 -12 -33 -18 -18 -29
-100 -76 -142 -81 -76 -10 -100 3 -134 71 -16 32 -33 70 -39 84 -5 14 -16 37
-23 51 -12 23 -12 28 1 39 8 7 15 20 15 29 0 10 7 26 15 37 23 30 18 42 -25
55 -31 10 -37 15 -31 28 5 9 7 37 4 64 -5 43 -4 47 15 47 32 0 33 12 3 72 -19
38 -27 65 -23 87 4 31 5 31 26 16 11 -8 30 -19 41 -24z m1276 -906 c14 -23 18
-54 18 -142 1 -67 5 -114 12 -118 15 -10 6 -28 -17 -31 -10 -2 -31 1 -46 7
-28 11 -28 13 -29 103 0 50 -4 109 -8 131 -15 80 33 114 70 50z m99 -66 c0
-50 -3 -59 -18 -59 -15 0 -18 10 -19 62 -2 70 3 84 23 67 9 -7 14 -32 14 -70z
m-2756 -234 c19 -15 19 -15 -4 -40 -26 -28 -42 -30 -89 -14 l-32 11 27 29 c31
32 67 37 98 14z m381 -119 c48 -16 122 -31 185 -37 119 -12 201 -36 278 -82
66 -40 66 -61 -2 -65 -34 -2 -67 4 -113 23 -35 14 -99 30 -141 36 -87 12 -186
34 -250 55 -132 44 -480 18 -497 -37 -4 -11 -10 -19 -15 -19 -4 0 -17 -16 -29
-35 -11 -20 -29 -38 -38 -41 -49 -16 -123 -58 -123 -71 0 -7 -20 -26 -45 -41
-26 -16 -44 -33 -42 -42 4 -24 85 -13 122 16 137 112 176 134 233 134 21 0 73
9 115 19 63 17 92 19 177 12 118 -9 138 -20 89 -50 -19 -12 -41 -21 -48 -21
-33 0 -322 -104 -404 -146 -49 -24 -92 -42 -96 -40 -13 8 -90 -35 -127 -70
-19 -19 -44 -34 -55 -34 -12 0 -42 -23 -73 -55 -28 -30 -57 -55 -62 -55 -6 0
-20 -11 -30 -25 -10 -14 -22 -25 -26 -25 -20 0 -3 32 52 96 32 38 59 74 59 79
0 14 -31 50 -50 57 -8 3 -28 0 -45 -7 -41 -17 -181 -163 -254 -265 -34 -47
-85 -110 -114 -140 -29 -30 -77 -89 -106 -130 -71 -99 -130 -170 -141 -170 -5
0 -9 15 -9 33 1 25 14 48 61 102 33 39 91 115 128 170 38 55 79 109 91 120 12
11 45 54 73 95 47 70 221 251 277 288 14 9 61 44 105 78 44 33 121 87 170 119
50 32 109 71 132 87 23 16 68 40 100 54 32 13 67 29 78 34 49 23 98 29 210 26
99 -2 134 -8 200 -30z m2323 22 c8 -8 12 -62 12 -175 0 -105 4 -163 10 -163 6
0 13 13 16 30 12 57 30 56 58 -5 34 -76 42 -118 22 -134 -19 -16 -56 2 -56 28
0 19 -36 58 -46 48 -3 -3 -12 -23 -19 -44 -12 -34 -16 -38 -42 -34 -15 1 -31
5 -35 7 -4 3 -5 37 -3 77 17 307 21 345 34 360 16 20 32 22 49 5z m432 -267
c0 -109 -19 -168 -49 -149 -16 10 -24 7 -49 -19 -47 -47 -85 -50 -132 -11 -37
31 -38 34 -24 60 8 15 14 40 14 55 0 42 26 73 60 73 16 0 32 5 35 10 3 6 17
10 29 10 17 0 28 -10 40 -34 9 -19 16 -41 16 -50 0 -9 4 -16 9 -16 13 0 21 26
21 65 0 46 11 95 21 95 5 0 9 -40 9 -89z m-705 -21 c5 -19 18 -46 27 -59 24
-34 15 -41 -33 -24 -73 25 -81 31 -68 55 9 17 8 23 -5 30 -26 15 0 40 38 36
25 -2 32 -9 41 -38z m-2606 -329 c-97 -103 -236 -219 -329 -274 -111 -65 -156
-103 -179 -149 -28 -58 -27 -61 14 -54 36 7 50 -7 18 -17 -10 -3 -30 -14 -45
-23 -26 -17 -28 -17 -47 0 -34 31 -11 76 93 179 128 126 160 155 240 212 38
28 92 70 120 95 82 73 181 136 195 124 2 -2 -34 -43 -80 -93z m2964 -22 c21
-5 41 -18 44 -27 6 -17 21 -35 61 -76 33 -34 29 -86 -10 -146 -25 -38 -50 -59
-113 -94 -90 -51 -148 -66 -225 -58 -44 4 -48 6 -33 18 17 12 15 16 -20 49
-21 19 -45 35 -53 35 -24 0 -30 31 -9 46 15 11 16 17 7 26 -22 22 -12 37 31
49 53 16 65 25 38 34 -12 3 -21 10 -21 15 0 16 41 22 113 16 67 -6 74 -5 102
19 29 25 29 26 11 40 -11 8 -28 15 -38 15 -28 0 -21 15 15 33 39 19 51 20 100
6z m-96 -478 c15 -24 65 -47 117 -55 21 -3 41 -7 43 -10 2 -2 -3 -19 -12 -36
-9 -18 -15 -44 -12 -58 5 -26 -10 -58 -46 -99 -10 -12 -16 -26 -13 -32 9 -14
-22 -61 -40 -61 -7 0 -18 -9 -24 -20 -6 -11 -21 -22 -35 -26 -28 -7 -51 -31
-56 -58 -7 -35 -32 -41 -83 -20 -25 10 -46 25 -46 31 0 9 -15 11 -50 9 -36 -3
-57 1 -71 13 -19 15 -19 18 -5 46 9 17 14 41 11 56 -4 17 0 30 10 39 22 19 48
77 41 95 -3 8 -1 15 5 15 6 0 9 12 7 27 -3 30 7 34 115 48 38 5 50 11 57 30 5
13 16 28 26 33 13 7 14 13 5 31 -11 19 -9 21 16 21 17 0 33 -8 40 -19z m-3443
-113 c-11 -81 -11 -343 0 -385 8 -30 6 -33 -13 -33 -19 0 -21 6 -23 78 -2 135
5 291 16 337 2 11 5 30 5 43 1 12 6 22 12 22 9 0 9 -17 3 -62z m1930 -192 c8
-22 20 -74 27 -114 7 -40 16 -75 21 -78 5 -3 18 2 28 11 10 9 29 15 42 13 20
-3 23 -9 23 -43 l0 -40 55 -1 c93 -1 100 -3 100 -22 0 -24 -32 -53 -75 -68
-31 -10 -36 -9 -48 9 -12 18 -17 19 -46 9 -30 -11 -35 -10 -53 13 -11 14 -25
25 -32 25 -15 0 -26 -43 -26 -101 0 -22 -3 -39 -7 -39 -11 1 -53 69 -53 85 0
8 -4 16 -9 20 -12 7 -14 119 -5 266 6 97 8 106 25 102 10 -3 25 -23 33 -47z
m634 -88 c17 -17 15 -28 -6 -28 -19 0 -42 18 -42 32 0 12 35 9 48 -4z m159
-38 c3 -11 9 -20 14 -20 5 0 9 -4 9 -10 0 -5 -20 -10 -44 -10 -25 0 -48 5 -51
10 -3 6 1 10 9 10 8 0 20 9 26 20 6 11 15 20 21 20 6 0 13 -9 16 -20z m848 -1
c12 -37 -19 -109 -47 -109 -11 0 -10 38 2 45 6 3 10 17 10 30 0 51 23 73 35
34z m-751 -15 c28 -11 17 -24 -20 -24 -31 0 -35 2 -24 15 14 17 21 18 44 9z
m-300 -60 c13 -34 5 -75 -24 -121 -16 -26 -30 -52 -30 -58 0 -18 -29 -71 -45
-85 -10 -8 -29 -10 -55 -6 -46 7 -54 -8 -20 -39 28 -25 25 -72 -5 -118 -27
-39 -48 -45 -79 -22 -18 13 -18 18 -6 57 7 24 17 47 22 53 17 19 7 53 -27 92
l-35 41 19 44 c22 51 120 158 145 158 10 0 26 -4 36 -10 14 -7 24 -5 42 10 28
24 54 25 62 4z m866 -76 c0 -27 5 -40 19 -48 13 -7 22 -7 26 0 8 13 35 13 35
0 0 -6 -12 -29 -26 -51 -25 -40 -26 -41 -40 -20 -8 12 -19 21 -24 21 -21 0
-62 -48 -68 -79 -8 -38 -10 -39 -106 -70 -61 -20 -70 -21 -85 -7 -14 13 -24
13 -52 4 -29 -8 -43 -7 -70 5 -19 8 -41 17 -50 20 -9 3 -19 20 -23 38 -5 28
-2 37 16 51 13 10 27 18 32 18 6 0 28 12 50 27 23 14 57 37 78 50 29 20 54 26
132 30 96 6 121 18 91 43 -8 6 -12 17 -9 24 4 10 12 10 40 -3 30 -13 34 -20
34 -53z m-776 -8 c14 -5 26 -17 26 -25 0 -12 10 -15 51 -13 48 3 53 1 70 -27
37 -62 13 -101 -80 -134 -47 -16 -56 -17 -82 -4 -16 8 -34 24 -41 36 -16 30
-15 141 1 161 16 19 21 19 55 6z m-992 -192 c9 -8 19 -37 23 -70 6 -53 5 -58
-13 -58 -22 0 -71 42 -73 62 -2 21 3 62 8 71 7 11 37 8 55 -5z m859 -139 c23
-45 35 -54 54 -39 11 9 21 7 45 -10 34 -24 35 -28 16 -52 -18 -24 -43 -23 -56
2 -13 24 -38 26 -46 5 -4 -10 -20 -15 -45 -15 l-39 0 0 79 c0 106 26 117 71
30z m-942 37 c16 -18 -6 -66 -29 -66 -11 0 -20 -11 -23 -30 -5 -23 -12 -30
-30 -30 -21 0 -42 -15 -75 -55 -12 -14 -16 -14 -42 0 -33 17 -36 31 -18 70 8
18 19 25 40 25 21 0 32 7 40 25 8 18 19 25 40 25 21 0 32 7 40 25 12 28 39 33
57 11z m107 -128 c6 -4 11 -26 11 -49 0 -40 0 -40 -31 -33 -39 8 -41 10 -27
28 9 11 10 20 1 36 -19 36 8 47 46 18z m-75 -81 c18 -6 31 -64 17 -73 -5 -3
-15 0 -23 6 -17 14 -35 5 -35 -19 0 -43 -70 -58 -91 -20 -13 24 -7 33 42 57
35 17 39 30 23 82 l-7 25 29 -26 c16 -14 36 -29 45 -32z"/>
<path d="M6790 16380 c0 -5 5 -10 11 -10 6 0 8 -9 4 -20 -3 -11 -2 -20 4 -20
18 0 22 19 9 40 -14 21 -28 27 -28 10z"/>
<path d="M7301 15436 c-6 -7 -25 -16 -41 -20 -38 -7 -39 -23 -2 -32 15 -4 30
-11 33 -16 9 -14 59 13 59 33 0 9 3 24 6 33 8 21 -38 22 -55 2z"/>
<path d="M6830 15100 c0 -5 5 -10 10 -10 6 0 10 5 10 10 0 6 -4 10 -10 10 -5
0 -10 -4 -10 -10z"/>
<path d="M6803 15054 c-15 -15 -17 -34 -4 -34 15 0 30 25 23 37 -5 8 -11 7
-19 -3z"/>
<path d="M6424 15026 c-9 -23 24 -72 39 -57 7 7 8 20 1 38 -11 31 -32 41 -40
19z"/>
<path d="M6420 14828 c-19 -20 -19 -23 -4 -47 10 -14 25 -34 35 -43 9 -9 23
-34 29 -55 23 -71 57 -89 47 -25 -8 48 -40 163 -50 180 -12 18 -34 15 -57 -10z"/>
<path d="M6570 14490 c0 -11 5 -20 10 -20 6 0 10 9 10 20 0 11 -4 20 -10 20
-5 0 -10 -9 -10 -20z"/>
<path d="M4990 12701 c0 -11 26 -22 34 -14 3 3 3 10 0 14 -7 12 -34 11 -34 0z"/>
<path d="M7090 17541 c0 -22 40 -51 70 -51 22 0 26 20 10 51 -15 27 -80 27
-80 0z"/>
<path d="M6967 17534 c-11 -11 3 -24 24 -24 12 0 19 5 17 13 -5 14 -31 21 -41
11z"/>
<path d="M7635 17494 c-20 -15 -20 -15 -1 -30 25 -18 45 -18 52 1 6 15 -11 45
-25 45 -3 0 -15 -8 -26 -16z"/>
<path d="M6190 17413 c-52 -53 -58 -62 -45 -73 28 -24 85 28 85 77 0 7 4 13 9
13 10 0 24 31 16 38 -2 3 -32 -22 -65 -55z"/>
<path d="M6590 17445 c0 -8 5 -15 10 -15 6 0 10 7 10 15 0 8 -4 15 -10 15 -5
0 -10 -7 -10 -15z"/>
<path d="M7364 17448 c-8 -13 33 -51 47 -42 13 8 11 21 -7 38 -18 19 -30 20
-40 4z"/>
<path d="M6267 17403 c-2 -4 -8 -24 -12 -43 -4 -19 -14 -43 -23 -53 -12 -14
-13 -22 -4 -42 10 -22 14 -24 37 -13 14 6 25 17 25 25 0 7 5 13 11 13 7 0 9
11 6 30 -5 20 -3 30 6 30 19 1 65 40 47 40 -9 0 -21 -5 -28 -12 -9 -9 -17 -7
-36 11 -13 12 -26 19 -29 14z"/>
<path d="M6714 17380 c-21 -16 -50 -30 -62 -30 -15 0 -26 -7 -29 -20 -5 -17
-11 -19 -39 -14 -26 5 -35 2 -40 -11 -8 -20 11 -64 31 -71 23 -9 62 4 84 28
12 12 35 22 56 23 43 3 45 5 62 53 27 79 5 94 -63 42z"/>
<path d="M6390 17336 c0 -14 56 -33 67 -22 3 3 0 12 -7 21 -16 19 -60 20 -60
1z"/>
<path d="M6493 17214 c-3 -9 -1 -25 5 -35 7 -10 12 -23 12 -29 0 -6 9 -24 21
-39 20 -28 20 -30 4 -55 -13 -20 -15 -30 -7 -38 16 -16 60 9 78 44 16 30 24
34 41 17 6 -6 26 -9 44 -7 41 4 51 34 20 62 -19 18 -21 17 -50 -3 -16 -12 -34
-21 -40 -21 -5 0 -29 27 -51 60 -41 60 -65 74 -77 44z"/>
<path d="M6283 17213 c-20 -7 -15 -23 7 -23 11 0 20 4 20 9 0 13 -12 19 -27
14z"/>
<path d="M6370 17175 c-7 -8 -9 -22 -6 -31 4 -9 1 -23 -5 -30 -13 -16 -4 -48
10 -39 15 9 24 -14 11 -29 -10 -13 -8 -33 7 -88 5 -22 36 -23 53 -3 18 21 20
67 4 98 -8 15 -12 33 -8 39 12 19 12 72 2 86 -14 17 -53 15 -68 -3z"/>
<path d="M6045 17160 c-3 -5 -22 -10 -42 -10 -34 0 -35 -1 -30 -30 4 -19 1
-34 -9 -45 -22 -22 -15 -80 11 -80 12 0 21 9 25 24 7 31 23 37 43 16 21 -20
27 -19 27 5 0 11 -11 27 -25 36 -14 9 -25 20 -25 25 0 12 38 49 50 49 6 0 10
5 10 10 0 6 -6 10 -14 10 -8 0 -18 -4 -21 -10z"/>
<path d="M5823 17113 c-16 -6 -17 -35 -1 -51 29 -29 91 1 81 39 -4 14 -14 19
-37 18 -17 0 -37 -3 -43 -6z"/>
<path d="M6200 17020 c0 -5 7 -10 15 -10 10 0 15 -8 14 -22 -5 -55 1 -78 19
-78 24 0 62 41 62 67 0 15 -12 25 -43 37 -49 18 -67 20 -67 6z"/>
<path d="M6100 16984 c0 -14 5 -35 12 -47 6 -12 13 -32 14 -44 3 -25 40 -83
54 -83 4 0 15 15 24 34 22 47 11 91 -33 132 -44 41 -71 44 -71 8z"/>
<path d="M5975 16890 c-11 -12 -31 -20 -52 -20 -26 0 -33 -4 -33 -19 0 -11 -9
-35 -20 -55 l-21 -34 36 -28 c46 -35 65 -22 41 27 -21 43 -13 48 19 13 25 -29
25 -29 40 -9 9 11 18 31 21 45 3 14 11 38 19 53 8 16 15 33 15 38 0 17 -47 9
-65 -11z"/>
<path d="M5753 16865 c-18 -21 -21 -36 -20 -89 2 -73 -5 -87 -31 -63 -16 14
-23 15 -45 4 -15 -6 -27 -16 -27 -22 1 -33 73 -73 96 -54 8 6 14 20 14 30 0
13 7 19 24 19 30 0 56 51 36 75 -15 18 -5 66 20 93 27 28 25 32 -12 32 -22 0
-40 -8 -55 -25z"/>
<path d="M5830 16612 c0 -38 46 -56 70 -27 18 21 -4 45 -41 45 -21 0 -29 -5
-29 -18z"/>
<path d="M5622 16538 c-18 -18 -15 -63 6 -80 11 -10 26 -13 42 -8 20 5 25 12
23 34 -2 30 -28 66 -48 66 -6 0 -16 -5 -23 -12z"/>
<path d="M5607 16293 c2 -32 4 -68 4 -80 1 -29 39 -33 39 -4 0 11 7 26 15 35
22 21 30 70 13 83 -7 6 -27 14 -44 17 l-31 7 4 -58z"/>
<path d="M5624 16122 c-6 -4 -10 -26 -9 -50 1 -33 7 -49 30 -71 37 -36 83 -48
92 -25 3 9 1 19 -4 23 -6 3 -13 16 -17 29 -4 12 -12 22 -17 22 -6 0 -8 12 -4
29 5 26 3 30 -26 40 -37 13 -31 12 -45 3z"/>
<path d="M5746 15611 c-11 -17 5 -39 30 -44 20 -3 24 0 24 18 0 29 -41 48 -54
26z"/>
<path d="M5710 15525 c-13 -16 -6 -65 10 -65 11 0 30 33 30 53 0 21 -26 28
-40 12z"/>
<path d="M5790 15522 c0 -4 16 -26 35 -48 33 -37 36 -38 52 -21 11 10 13 17 5
17 -7 0 -12 9 -12 19 0 11 -5 23 -11 26 -18 11 -69 17 -69 7z"/>
<path d="M5770 15421 c0 -5 7 -14 15 -21 16 -14 18 -10 9 14 -6 17 -24 22 -24
7z"/>
<path d="M5850 15420 c0 -5 5 -10 10 -10 6 0 10 5 10 10 0 6 -4 10 -10 10 -5
0 -10 -4 -10 -10z"/>
<path d="M6207 14125 c-21 -44 -21 -51 -1 -34 14 11 18 10 30 -5 7 -10 15 -24
17 -30 7 -21 37 16 37 45 0 22 -5 29 -19 29 -10 0 -21 7 -25 15 -9 24 -21 18
-39 -20z"/>
<path d="M7904 14020 c-59 -42 -64 -72 -18 -113 21 -17 59 -47 85 -65 33 -22
48 -38 46 -52 -1 -10 2 -19 7 -19 5 1 12 -4 16 -10 9 -16 69 -2 80 19 8 14 2
26 -26 54 -20 20 -40 36 -45 36 -5 0 -29 9 -54 21 -42 20 -45 24 -45 60 0 21
5 41 10 44 14 9 12 55 -2 55 -7 -1 -32 -14 -54 -30z"/>
<path d="M6190 13970 c0 -11 5 -20 10 -20 6 0 10 9 10 20 0 11 -4 20 -10 20
-5 0 -10 -9 -10 -20z"/>
<path d="M7794 13870 c1 -41 14 -50 45 -31 20 13 -4 71 -29 71 -14 0 -17 -8
-16 -40z"/>
<path d="M5892 13775 c2 -8 -10 -26 -27 -39 -25 -20 -28 -27 -17 -38 10 -10
15 -10 20 -1 4 7 21 11 37 10 36 -2 44 22 21 58 -18 28 -39 33 -34 10z"/>
<path d="M7420 13535 c-7 -9 -10 -18 -7 -21 5 -6 67 23 67 31 0 12 -49 3 -60
-10z"/>
<path d="M6890 13022 c0 -5 9 -27 20 -50 11 -22 20 -46 20 -52 0 -5 9 -10 20
-10 21 0 28 24 10 35 -5 3 -7 19 -4 34 5 23 2 32 -14 40 -24 13 -52 14 -52 3z"/>
<path d="M5910 12634 c-90 -14 -190 -68 -190 -104 0 -10 -11 -32 -25 -48 -62
-74 -2 -70 67 4 29 31 83 76 121 100 61 40 80 56 60 53 -5 -1 -19 -3 -33 -5z"/>
<path d="M6063 12624 c-43 -23 -93 -58 -93 -66 0 -11 27 -10 48 1 9 5 47 20
84 32 37 12 69 28 72 34 6 17 -76 16 -111 -1z"/>
<path d="M8532 11229 c3 -63 12 -107 37 -174 41 -114 61 -155 73 -155 10 0 8
16 -11 100 -6 25 -15 65 -19 90 -5 25 -19 67 -31 94 -13 27 -25 64 -28 83 -11
69 -25 45 -21 -38z"/>
<path d="M10005 9378 c-3 -13 -4 -160 -3 -328 l3 -305 95 -3 c60 -2 103 2 117
9 18 10 38 9 99 -6 172 -40 333 15 395 136 25 50 25 149 0 204 -57 125 -233
195 -380 151 -100 -29 -100 -29 -103 72 l-3 87 -107 3 c-105 3 -108 2 -113
-20z m434 -305 c32 -25 49 -83 33 -117 -15 -33 -53 -57 -101 -63 -135 -18
-197 139 -77 193 40 18 111 12 145 -13z"/>
<path d="M7250 9370 c-7 -12 -9 -125 -8 -322 l3 -303 110 0 110 0 3 300 c1
165 0 310 -3 323 -5 21 -10 22 -105 22 -88 0 -100 -2 -110 -20z"/>
<path d="M8700 9370 c-7 -12 -9 -125 -8 -322 l3 -303 110 0 110 0 3 300 c1
165 0 310 -3 323 -5 21 -10 22 -105 22 -88 0 -100 -2 -110 -20z"/>
<path d="M9760 9335 l0 -55 110 0 110 0 0 55 0 55 -110 0 -110 0 0 -55z"/>
<path d="M9161 9244 c-153 -33 -231 -131 -218 -275 14 -160 118 -226 373 -236
151 -7 217 8 288 62 81 62 118 196 79 286 -28 63 -76 114 -126 134 -108 43
-275 56 -396 29z m239 -161 c61 -54 47 -163 -25 -197 -115 -55 -227 55 -169
165 32 62 141 80 194 32z"/>
<path d="M7656 9230 c-49 -10 -94 -24 -100 -30 -12 -12 8 -54 48 -103 l23 -28
78 20 c111 29 255 27 255 -3 0 -9 -45 -16 -147 -25 -171 -14 -225 -24 -263
-51 -59 -42 -75 -135 -35 -196 44 -68 220 -103 345 -69 90 24 126 29 134 16 5
-7 51 -11 126 -11 129 0 130 0 130 64 0 20 -8 40 -20 51 -16 14 -20 31 -20 79
-1 171 -22 226 -101 267 -83 42 -300 51 -453 19z m322 -285 c10 -10 -13 -39
-44 -55 -40 -20 -171 -20 -184 0 -16 25 -11 37 18 48 49 20 193 25 210 7z"/>
<path d="M10916 9230 c-49 -10 -94 -24 -100 -30 -12 -12 8 -54 48 -103 l23
-28 78 20 c111 29 255 27 255 -3 0 -9 -45 -16 -147 -25 -171 -14 -225 -24
-263 -51 -59 -42 -75 -135 -35 -196 44 -68 220 -103 345 -69 90 24 126 29 134
16 5 -7 51 -11 126 -11 129 0 130 0 130 64 0 20 -8 40 -20 51 -16 14 -20 31
-20 79 -1 171 -22 226 -101 267 -83 42 -300 51 -453 19z m322 -285 c10 -10
-13 -39 -44 -55 -40 -20 -171 -20 -184 0 -16 25 -11 37 18 48 49 20 193 25
210 7z"/>
<path d="M11833 9221 c-53 -15 -65 -16 -74 -5 -8 10 -40 14 -114 14 l-103 0
-7 -182 c-4 -101 -5 -210 -3 -243 l3 -60 103 -3 c102 -3 102 -3 112 23 6 15
10 77 10 139 0 98 3 117 20 139 41 52 135 59 178 14 20 -21 22 -36 24 -167 l3
-145 102 -3 c95 -3 103 -1 113 19 8 14 11 75 8 182 -3 148 -5 165 -26 199 -52
83 -213 120 -349 79z"/>
<path d="M9766 9222 c-3 -5 -6 -112 -6 -238 -2 -213 -3 -230 -21 -250 -16 -17
-19 -33 -17 -75 l3 -54 67 -3 c94 -4 144 11 168 51 18 30 20 52 20 305 l0 272
-104 0 c-58 0 -107 -4 -110 -8z"/>
<path d="M6760 8561 c-12 -23 -13 -71 -2 -89 6 -9 41 -13 113 -15 l104 -2 3
54 c2 37 -1 57 -10 62 -7 5 -54 9 -105 9 -81 0 -94 -2 -103 -19z"/>
<path d="M5733 8564 c-9 -4 -13 -32 -13 -90 0 -46 -2 -84 -5 -84 -3 0 -40 10
-82 21 -93 26 -186 22 -260 -11 -96 -42 -144 -113 -151 -225 -3 -62 -1 -76 25
-125 50 -95 146 -140 300 -140 36 0 74 5 86 12 14 8 72 12 167 13 l145 0 0
315 0 315 -100 2 c-55 1 -106 -1 -112 -3z m-86 -309 c60 -25 73 -42 73 -97 0
-44 -3 -50 -32 -68 -69 -42 -157 -34 -197 17 -25 31 -27 63 -6 103 29 56 93
73 162 45z"/>
<path d="M11240 8550 c-7 -12 -9 -125 -8 -322 l3 -303 110 0 110 0 3 300 c1
165 0 310 -3 323 -5 21 -10 22 -105 22 -88 0 -100 -2 -110 -20z"/>
<path d="M6191 8424 c-153 -33 -231 -131 -218 -275 14 -160 118 -226 373 -236
151 -7 217 8 288 62 81 62 118 196 79 286 -28 63 -76 114 -126 134 -108 43
-275 56 -396 29z m239 -161 c61 -54 47 -163 -25 -197 -115 -55 -227 55 -169
165 32 62 141 80 194 32z"/>
<path d="M7717 8406 c-56 -20 -69 -22 -74 -10 -8 22 -208 20 -217 -2 -8 -20
-8 -438 0 -458 5 -13 23 -16 98 -16 50 0 96 4 102 8 8 4 15 59 19 141 7 125 9
136 34 163 46 50 136 48 171 -5 11 -16 15 -56 16 -152 0 -71 2 -136 2 -142 3
-18 193 -18 210 -1 8 8 12 52 12 130 0 85 4 127 15 147 27 53 125 79 172 46
36 -26 46 -76 39 -200 -6 -92 -5 -114 7 -124 10 -8 47 -11 113 -9 l99 3 3 181
c2 172 1 182 -21 224 -55 105 -238 131 -400 58 -43 -19 -52 -20 -80 -9 -89 36
-118 44 -182 48 -56 3 -83 -1 -138 -21z"/>
<path d="M8726 8410 c-49 -10 -94 -24 -100 -30 -12 -12 8 -54 48 -103 l23 -28
78 20 c111 29 255 27 255 -3 0 -9 -45 -16 -147 -25 -171 -14 -225 -24 -263
-51 -59 -42 -75 -135 -35 -196 44 -68 220 -103 345 -69 90 24 126 29 134 16 5
-7 51 -11 126 -11 129 0 130 0 130 64 0 20 -8 40 -20 51 -16 14 -20 31 -20 79
-1 171 -22 226 -101 267 -83 42 -300 51 -453 19z m322 -285 c10 -10 -13 -39
-44 -55 -40 -20 -171 -20 -184 0 -16 25 -11 37 18 48 49 20 193 25 210 7z"/>
<path d="M9637 8406 c-56 -20 -69 -22 -74 -10 -8 22 -208 20 -217 -2 -8 -20
-8 -438 0 -458 5 -13 23 -16 98 -16 50 0 96 4 102 8 8 4 15 59 19 141 7 125 9
136 34 163 46 50 136 48 171 -5 11 -16 15 -56 16 -152 0 -71 2 -136 2 -142 3
-18 193 -18 210 -1 8 8 12 52 12 130 0 85 4 127 15 147 27 53 125 79 172 46
36 -26 46 -76 39 -200 -6 -92 -5 -114 7 -124 10 -8 47 -11 113 -9 l99 3 3 181
c2 172 1 182 -21 224 -55 105 -238 131 -400 58 -43 -19 -52 -20 -80 -9 -89 36
-118 44 -182 48 -56 3 -83 -1 -138 -21z"/>
<path d="M10661 8414 c-126 -34 -191 -114 -191 -233 1 -92 54 -161 151 -197
48 -18 231 -25 307 -11 53 9 54 -7 1 -38 -51 -30 -238 -28 -327 3 -74 27 -82
23 -108 -44 -22 -57 -14 -67 76 -91 51 -14 105 -18 250 -18 211 0 266 12 325
70 59 60 69 110 62 341 -3 112 -8 207 -12 213 -4 7 -46 11 -105 11 -82 0 -101
-3 -108 -17 -9 -15 -15 -15 -76 5 -77 26 -165 28 -245 6z m269 -153 c65 -35
65 -105 0 -149 -63 -43 -171 -15 -194 52 -22 59 37 116 119 116 22 0 56 -8 75
-19z"/>
<path d="M11694 8415 c-79 -17 -112 -35 -156 -83 -62 -68 -75 -191 -29 -280
11 -22 39 -56 63 -76 64 -55 128 -71 288 -71 155 0 221 13 281 57 38 27 73 83
63 100 -10 16 -245 9 -299 -8 -60 -19 -112 -13 -147 16 -40 34 -9 40 223 40
256 0 249 -3 231 93 -7 37 -23 78 -40 102 -34 49 -116 100 -184 114 -66 15
-219 12 -294 -4z m223 -130 c42 -18 58 -36 40 -47 -17 -11 -215 -10 -221 1 -3
4 2 15 12 24 42 38 110 47 169 22z"/>
<path d="M6756 8395 c-3 -9 -6 -117 -6 -240 l0 -222 38 -7 c60 -10 180 -7 187
5 8 13 7 460 -1 468 -3 3 -52 7 -108 9 -90 4 -104 2 -110 -13z"/>
<path d="M3735 7738 c-3 -13 -4 -160 -3 -328 l3 -305 95 -3 c60 -2 103 2 117
9 18 10 38 9 99 -6 172 -40 333 15 395 136 25 50 25 149 0 204 -57 125 -233
195 -380 151 -100 -29 -100 -29 -103 72 l-3 87 -107 3 c-105 3 -108 2 -113
-20z m434 -305 c32 -25 49 -83 33 -117 -15 -33 -53 -57 -101 -63 -135 -18
-197 139 -77 193 40 18 111 12 145 -13z"/>
<path d="M6685 7738 c-3 -13 -4 -160 -3 -328 l3 -305 95 -3 c60 -2 103 2 117
9 18 10 38 9 99 -6 172 -40 333 15 395 136 25 50 25 149 0 204 -57 125 -233
195 -380 151 -100 -29 -100 -29 -103 72 l-3 87 -107 3 c-105 3 -108 2 -113
-20z m434 -305 c32 -25 49 -83 33 -117 -15 -33 -53 -57 -101 -63 -135 -18
-197 139 -77 193 40 18 111 12 145 -13z"/>
<path d="M2293 7744 c-9 -4 -13 -32 -13 -90 0 -46 -2 -84 -5 -84 -3 0 -40 10
-82 21 -93 26 -186 22 -260 -11 -96 -42 -144 -113 -151 -225 -3 -62 -1 -76 25
-125 50 -95 146 -140 300 -140 36 0 74 5 86 12 14 8 72 12 167 13 l145 0 0
315 0 315 -100 2 c-55 1 -106 -1 -112 -3z m-86 -309 c60 -25 73 -42 73 -97 0
-44 -3 -50 -32 -68 -69 -42 -157 -34 -197 17 -25 31 -27 63 -6 103 29 56 93
73 162 45z"/>
<path d="M5266 7724 c-3 -9 -6 -54 -6 -100 l0 -84 30 0 c44 0 49 -25 12 -58
-25 -22 -29 -31 -22 -49 16 -40 107 -23 157 29 44 45 53 76 53 173 0 103 -2
105 -128 105 -73 0 -91 -3 -96 -16z"/>
<path d="M2751 7604 c-153 -33 -231 -131 -218 -275 14 -160 118 -226 373 -236
151 -7 217 8 288 62 81 62 118 196 79 286 -28 63 -76 114 -126 134 -108 43
-275 56 -396 29z m239 -161 c61 -54 47 -163 -25 -197 -115 -55 -227 55 -169
165 32 62 141 80 194 32z"/>
<path d="M4646 7590 c-49 -10 -94 -24 -100 -30 -12 -12 8 -54 48 -103 l23 -28
78 20 c111 29 255 27 255 -3 0 -9 -45 -16 -147 -25 -171 -14 -225 -24 -263
-51 -59 -42 -75 -135 -35 -196 44 -68 220 -103 345 -69 90 24 126 29 134 16 5
-7 51 -11 126 -11 129 0 130 0 130 64 0 20 -8 40 -20 51 -16 14 -20 31 -20 79
-1 171 -22 226 -101 267 -83 42 -300 51 -453 19z m322 -285 c10 -10 -13 -39
-44 -55 -40 -20 -171 -20 -184 0 -16 25 -11 37 18 48 49 20 193 25 210 7z"/>
<path d="M5724 7595 c-79 -17 -112 -35 -156 -83 -62 -68 -75 -191 -29 -280 11
-22 39 -56 63 -76 64 -55 128 -71 288 -71 155 0 221 13 281 57 38 27 73 83 63
100 -10 16 -245 9 -299 -8 -60 -19 -112 -13 -147 16 -40 34 -9 40 223 40 256
0 249 -3 231 93 -7 37 -23 78 -40 102 -34 49 -116 100 -184 114 -66 15 -219
12 -294 -4z m223 -130 c42 -18 58 -36 40 -47 -17 -11 -215 -10 -221 1 -3 4 2
15 12 24 42 38 110 47 169 22z"/>
<path d="M7596 7590 c-49 -10 -94 -24 -100 -30 -12 -12 8 -54 48 -103 l23 -28
78 20 c111 29 255 27 255 -3 0 -9 -45 -16 -147 -25 -171 -14 -225 -24 -263
-51 -59 -42 -75 -135 -35 -196 44 -68 220 -103 345 -69 90 24 126 29 134 16 5
-7 51 -11 126 -11 129 0 130 0 130 64 0 20 -8 40 -20 51 -16 14 -20 31 -20 79
-1 171 -22 226 -101 267 -83 42 -300 51 -453 19z m322 -285 c10 -10 -13 -39
-44 -55 -40 -20 -171 -20 -184 0 -16 25 -11 37 18 48 49 20 193 25 210 7z"/>
<path d="M9091 7594 c-126 -34 -191 -114 -191 -233 1 -92 54 -161 151 -197 48
-18 231 -25 307 -11 53 9 54 -7 1 -38 -51 -30 -238 -28 -327 3 -74 27 -82 23
-108 -44 -22 -57 -14 -67 76 -91 51 -14 105 -18 250 -18 211 0 266 12 325 70
59 60 69 110 62 341 -3 112 -8 207 -12 213 -4 7 -46 11 -105 11 -82 0 -101 -3
-108 -17 -9 -15 -15 -15 -76 5 -77 26 -165 28 -245 6z m269 -153 c65 -35 65
-105 0 -149 -63 -43 -171 -15 -194 52 -22 59 37 116 119 116 22 0 56 -8 75
-19z"/>
<path d="M8513 7581 c-53 -15 -65 -16 -74 -5 -8 10 -40 14 -114 14 l-103 0 -7
-182 c-4 -101 -5 -210 -3 -243 l3 -60 103 -3 c102 -3 102 -3 112 23 6 15 10
77 10 139 0 98 3 117 20 139 41 52 135 59 178 14 20 -21 22 -36 24 -167 l3
-145 102 -3 c95 -3 103 -1 113 19 8 14 11 75 8 182 -3 148 -5 165 -26 199 -52
83 -213 120 -349 79z"/>
<path d="M9688 7593 l-28 -4 0 -175 c0 -182 5 -208 49 -258 55 -62 188 -82
316 -46 54 15 80 19 83 11 2 -7 42 -11 113 -11 107 0 109 0 115 25 3 14 2 120
-2 237 l-9 213 -107 3 -108 3 0 -126 c0 -144 -9 -173 -64 -199 -50 -23 -102
-21 -130 7 -21 21 -23 34 -28 164 -3 77 -8 145 -12 152 -7 11 -126 13 -188 4z"/>
<path d="M10790 7590 c0 -7 37 -51 83 -99 46 -47 88 -93 95 -103 11 -14 -2
-33 -92 -140 -58 -67 -106 -126 -106 -130 0 -5 59 -8 132 -8 l132 0 52 51 52
52 55 -52 54 -51 131 0 c77 0 133 4 137 10 4 6 -42 62 -102 126 -59 63 -109
120 -111 127 -1 7 36 56 83 110 47 54 85 102 85 108 0 5 -51 9 -120 9 l-121 0
-48 -45 -47 -44 -42 42 -42 42 -130 3 c-97 3 -130 0 -130 -8z"/>
<path d="M11568 7593 l-28 -4 0 -175 c0 -182 5 -208 49 -258 55 -62 188 -82
316 -46 54 15 80 19 83 11 2 -7 42 -11 113 -11 107 0 109 0 115 25 3 14 2 120
-2 237 l-9 213 -107 3 -108 3 0 -126 c0 -144 -9 -173 -64 -199 -50 -23 -102
-21 -130 7 -21 21 -23 34 -28 164 -3 77 -8 145 -12 152 -7 11 -126 13 -188 4z"/>
</g>
</svg>
